<svg version="1.1" xmlns="http://www.w3.org/2000/svg" viewBox="0 0 1840.4076447053558 824.2659043223019" width="5521.222934116067" height="2472.7977129669057">
  <!-- svg-source:excalidraw -->
  
  <defs>
    <style class="style-fonts">
      @font-face {
        font-family: "Virgil";
        src: url("https://unpkg.com/@excalidraw/excalidraw@undefined/dist/excalidraw-assets/Virgil.woff2");
      }
      @font-face {
        font-family: "Cascadia";
        src: url("https://unpkg.com/@excalidraw/excalidraw@undefined/dist/excalidraw-assets/Cascadia.woff2");
      }
      @font-face {
        font-family: "Assistant";
        src: url("https://unpkg.com/@excalidraw/excalidraw@undefined/dist/excalidraw-assets/Assistant-Regular.woff2");
      }
    </style>
    
  </defs>
  <g stroke-linecap="round"><g transform="translate(1178.5218081947296 513.9653207742332) rotate(0 284.0720895165541 132.5090520592322)" fill-rule="evenodd"><path d="M0 0 C1.7 -3.02, -3.62 -17.63, 10.19 -18.11 C23.99 -18.59, -13.42 -38.97, 82.84 -2.87 C179.11 33.22, 505.37 157.04, 587.78 198.45 C670.19 239.86, 584.64 233.39, 577.29 245.56 C569.94 257.74, 557.25 265.24, 543.68 271.5 C530.12 277.76, 539.78 300.73, 495.9 283.13 C452.02 265.53, 362 205.89, 280.41 165.9 C198.83 125.91, 56.42 66.55, 6.41 43.18 C-43.6 19.8, -18.57 32.84, -19.63 25.65 C-20.7 18.45, -3.27 4.27, 0 0" stroke="none" stroke-width="0" fill="#a18072" fill-rule="evenodd"></path><path d="M0 0 C1.7 -3.02, -3.62 -17.63, 10.19 -18.11 C23.99 -18.59, -13.42 -38.97, 82.84 -2.87 C179.11 33.22, 505.37 157.04, 587.78 198.45 C670.19 239.86, 584.64 233.39, 577.29 245.56 C569.94 257.74, 557.25 265.24, 543.68 271.5 C530.12 277.76, 539.78 300.73, 495.9 283.13 C452.02 265.53, 362 205.89, 280.41 165.9 C198.83 125.91, 56.42 66.55, 6.41 43.18 C-43.6 19.8, -18.57 32.84, -19.63 25.65 C-20.7 18.45, -3.27 4.27, 0 0 M0 0 C1.7 -3.02, -3.62 -17.63, 10.19 -18.11 C23.99 -18.59, -13.42 -38.97, 82.84 -2.87 C179.11 33.22, 505.37 157.04, 587.78 198.45 C670.19 239.86, 584.64 233.39, 577.29 245.56 C569.94 257.74, 557.25 265.24, 543.68 271.5 C530.12 277.76, 539.78 300.73, 495.9 283.13 C452.02 265.53, 362 205.89, 280.41 165.9 C198.83 125.91, 56.42 66.55, 6.41 43.18 C-43.6 19.8, -18.57 32.84, -19.63 25.65 C-20.7 18.45, -3.27 4.27, 0 0" stroke="#d0d0d0" stroke-width="1" fill="none"></path></g></g><mask></mask><g stroke-linecap="round"><g transform="translate(829.9985016801602 289.88792109574536) rotate(0 266.8851908893903 -60.755331904922286)" fill-rule="evenodd"><path d="M0 0 C21.36 -13.61, 50.94 -44.97, 128.15 -81.67 C205.36 -118.38, 393.19 -189.62, 463.24 -220.2 C533.3 -250.79, 539.52 -270.25, 548.49 -265.18 C557.46 -260.11, 529.71 -216.15, 517.05 -189.8 C504.39 -163.46, 489.67 -136.9, 472.52 -107.12 C455.38 -77.33, 439.71 -45.36, 414.18 -11.08 C388.65 23.21, 357.79 72.8, 319.36 98.59 C280.92 124.38, 221.2 137.97, 183.58 143.67 C145.95 149.36, 118.83 139.01, 93.62 132.76 C68.42 126.52, 48.53 116.89, 32.35 106.2 C16.16 95.51, 4.34 81.83, -3.5 68.61 C-11.35 55.4, -15.3 38.34, -14.72 26.9 C-14.14 15.47, -2.45 4.48, 0 0" stroke="none" stroke-width="0" fill="#a18072" fill-rule="evenodd"></path><path d="M0 0 C21.36 -13.61, 50.94 -44.97, 128.15 -81.67 C205.36 -118.38, 393.19 -189.62, 463.24 -220.2 C533.3 -250.79, 539.52 -270.25, 548.49 -265.18 C557.46 -260.11, 529.71 -216.15, 517.05 -189.8 C504.39 -163.46, 489.67 -136.9, 472.52 -107.12 C455.38 -77.33, 439.71 -45.36, 414.18 -11.08 C388.65 23.21, 357.79 72.8, 319.36 98.59 C280.92 124.38, 221.2 137.97, 183.58 143.67 C145.95 149.36, 118.83 139.01, 93.62 132.76 C68.42 126.52, 48.53 116.89, 32.35 106.2 C16.16 95.51, 4.34 81.83, -3.5 68.61 C-11.35 55.4, -15.3 38.34, -14.72 26.9 C-14.14 15.47, -2.45 4.48, 0 0 M0 0 C21.36 -13.61, 50.94 -44.97, 128.15 -81.67 C205.36 -118.38, 393.19 -189.62, 463.24 -220.2 C533.3 -250.79, 539.52 -270.25, 548.49 -265.18 C557.46 -260.11, 529.71 -216.15, 517.05 -189.8 C504.39 -163.46, 489.67 -136.9, 472.52 -107.12 C455.38 -77.33, 439.71 -45.36, 414.18 -11.08 C388.65 23.21, 357.79 72.8, 319.36 98.59 C280.92 124.38, 221.2 137.97, 183.58 143.67 C145.95 149.36, 118.83 139.01, 93.62 132.76 C68.42 126.52, 48.53 116.89, 32.35 106.2 C16.16 95.51, 4.34 81.83, -3.5 68.61 C-11.35 55.4, -15.3 38.34, -14.72 26.9 C-14.14 15.47, -2.45 4.48, 0 0" stroke="#d0d0d0" stroke-width="1" fill="none"></path></g></g><mask></mask><g stroke-linecap="round"><g transform="translate(511.6831802466131 436.3275461953823) rotate(0 334.60338014517765 55.005456451697)" fill-rule="evenodd"><path d="M0 0 C7.83 -10.4, 33.05 -47.91, 46.97 -62.41 C60.89 -76.91, 71.5 -81.17, 83.53 -87 C95.56 -92.83, 102.39 -94.99, 119.15 -97.4 C135.91 -99.82, 162.39 -104.49, 184.09 -101.5 C205.78 -98.51, 217.13 -91.99, 249.34 -79.43 C281.54 -66.88, 347.37 -37.14, 377.32 -26.16 C407.26 -15.18, 404.79 -16.97, 429.01 -13.55 C453.23 -10.14, 490.53 -11.45, 522.63 -5.67 C554.73 0.11, 594.55 11.35, 621.61 21.12 C648.67 30.89, 680.08 40.35, 684.97 52.96 C689.85 65.57, 674.15 76.13, 650.92 96.77 C627.7 117.42, 573.38 158.82, 545.64 176.84 C517.9 194.86, 506.66 199.11, 484.49 204.89 C462.32 210.67, 436.63 211.35, 412.62 211.51 C388.61 211.67, 361.55 208.57, 340.43 205.84 C319.32 203.11, 302.92 202.05, 285.9 195.12 C268.88 188.18, 259.9 179.83, 238.3 164.23 C216.71 148.63, 180.46 119.05, 156.35 101.5 C132.23 83.95, 117.16 68.09, 93.62 58.95 C70.08 49.8, 33.36 49.17, 15.13 46.65 C-3.1 44.13, -12.71 50.75, -15.76 43.82 C-18.81 36.88, -5.25 11.51, -3.15 5.04" stroke="none" stroke-width="0" fill="#fab005" fill-rule="evenodd"></path><path d="M0 0 C7.83 -10.4, 33.05 -47.91, 46.97 -62.41 C60.89 -76.91, 71.5 -81.17, 83.53 -87 C95.56 -92.83, 102.39 -94.99, 119.15 -97.4 C135.91 -99.82, 162.39 -104.49, 184.09 -101.5 C205.78 -98.51, 217.13 -91.99, 249.34 -79.43 C281.54 -66.88, 347.37 -37.14, 377.32 -26.16 C407.26 -15.18, 404.79 -16.97, 429.01 -13.55 C453.23 -10.14, 490.53 -11.45, 522.63 -5.67 C554.73 0.11, 594.55 11.35, 621.61 21.12 C648.67 30.89, 680.08 40.35, 684.97 52.96 C689.85 65.57, 674.15 76.13, 650.92 96.77 C627.7 117.42, 573.38 158.82, 545.64 176.84 C517.9 194.86, 506.66 199.11, 484.49 204.89 C462.32 210.67, 436.63 211.35, 412.62 211.51 C388.61 211.67, 361.55 208.57, 340.43 205.84 C319.32 203.11, 302.92 202.05, 285.9 195.12 C268.88 188.18, 259.9 179.83, 238.3 164.23 C216.71 148.63, 180.46 119.05, 156.35 101.5 C132.23 83.95, 117.16 68.09, 93.62 58.95 C70.08 49.8, 33.36 49.17, 15.13 46.65 C-3.1 44.13, -12.71 50.75, -15.76 43.82 C-18.81 36.88, -5.25 11.51, -3.15 5.04 M0 0 C7.83 -10.4, 33.05 -47.91, 46.97 -62.41 C60.89 -76.91, 71.5 -81.17, 83.53 -87 C95.56 -92.83, 102.39 -94.99, 119.15 -97.4 C135.91 -99.82, 162.39 -104.49, 184.09 -101.5 C205.78 -98.51, 217.13 -91.99, 249.34 -79.43 C281.54 -66.88, 347.37 -37.14, 377.32 -26.16 C407.26 -15.18, 404.79 -16.97, 429.01 -13.55 C453.23 -10.14, 490.53 -11.45, 522.63 -5.67 C554.73 0.11, 594.55 11.35, 621.61 21.12 C648.67 30.89, 680.08 40.35, 684.97 52.96 C689.85 65.57, 674.15 76.13, 650.92 96.77 C627.7 117.42, 573.38 158.82, 545.64 176.84 C517.9 194.86, 506.66 199.11, 484.49 204.89 C462.32 210.67, 436.63 211.35, 412.62 211.51 C388.61 211.67, 361.55 208.57, 340.43 205.84 C319.32 203.11, 302.92 202.05, 285.9 195.12 C268.88 188.18, 259.9 179.83, 238.3 164.23 C216.71 148.63, 180.46 119.05, 156.35 101.5 C132.23 83.95, 117.16 68.09, 93.62 58.95 C70.08 49.8, 33.36 49.17, 15.13 46.65 C-3.1 44.13, -12.71 50.75, -15.76 43.82 C-18.81 36.88, -5.25 11.51, -3.15 5.04" stroke="#000" stroke-width="1" fill="none"></path></g></g><mask></mask><g stroke-linecap="round"><g transform="translate(371.93948960466696 505.5971726431177) rotate(0 729.2340775503444 113.49290837802198)" fill-rule="evenodd"><path d="M0 0 L77.81 -8.72 L146.02 -13.61 L206.85 -8.49 L235.64 3.55 L271.8 26.34 L312.62 60.19 L360.95 99.61 L392.52 121.07 L421.83 136.07 L456.2 145.5 L505.4 150.9 L565.58 149.68 L628.74 141.66 L661.71 130.84 L712.3 103.45 L752.95 76.76 L786.44 46.58 L909.96 101.53 L1001.51 142.43 L1085.28 180.74 L1156.14 213.97 L1228.38 257.73 L1268.35 285.98 L1298.41 305.23 L1313 308.67 L1328.15 302.18 L1367.91 288.74 L1400.57 273.92 L1404.9 263.93 L1409.37 257.91 L1455.7 243.69 L1458.47 237.02 L1449.15 225.22 L1416.43 206.31 L1355.84 179.93 L1292.91 154.84 L1026.95 52.36 L793.43 -40.29 L690.05 -81.68 L807.93 -10.98 L827.72 -1.75 L1400.6 224.1 L1314.27 262.91 L798.13 32.43 L827.85 -1.67 L807.88 -10.97 L774.58 29.8 L747.98 58.67 L698.1 93.23 L670.55 108.76 L633.57 122.47 L570.12 133.64 L502.83 134.08 L458.58 128.85 L410.98 109.12 L359.61 74.87 L311.87 36.48 L261.58 -0.8 L233.27 -16.45 L201.09 -25.59 L147.1 -30.17 L143.58 -47.05 L135.67 -59.36 L118.28 -58.8 L102.48 -44.78 L59.41 -28.3 L0 0" stroke="none" stroke-width="0" fill="#000" fill-rule="evenodd"></path><path d="M0 0 C18.24 -2.05, 36.49 -4.09, 77.81 -8.72 M77.81 -8.72 C97.42 -10.13, 117.02 -11.53, 146.02 -13.61 M146.02 -13.61 C165.94 -11.93, 185.86 -10.26, 206.85 -8.49 M206.85 -8.49 C213.09 -5.88, 219.33 -3.28, 235.64 3.55 M235.64 3.55 C244.37 9.05, 253.09 14.55, 271.8 26.34 M271.8 26.34 C281.47 34.36, 291.15 42.38, 312.62 60.19 M312.62 60.19 C326.85 71.79, 341.07 83.39, 360.95 99.61 M360.95 99.61 C372.34 107.35, 383.72 115.09, 392.52 121.07 M392.52 121.07 C400.61 125.21, 408.7 129.35, 421.83 136.07 M421.83 136.07 C433.46 139.26, 445.09 142.45, 456.2 145.5 M456.2 145.5 C469.91 147, 483.61 148.51, 505.4 150.9 M505.4 150.9 C525.11 150.5, 544.83 150.1, 565.58 149.68 M565.58 149.68 C586.3 147.05, 607.01 144.42, 628.74 141.66 M628.74 141.66 C640.65 137.75, 652.56 133.84, 661.71 130.84 M661.71 130.84 C672.59 124.95, 683.47 119.06, 712.3 103.45 M712.3 103.45 C721.1 97.67, 729.9 91.89, 752.95 76.76 M752.95 76.76 C763.9 66.89, 774.86 57.02, 786.44 46.58 M786.44 46.58 C821.52 62.19, 856.59 77.79, 909.96 101.53 M909.96 101.53 C935.48 112.93, 961.01 124.34, 1001.51 142.43 M1001.51 142.43 C1021.26 151.46, 1041.01 160.49, 1085.28 180.74 M1085.28 180.74 C1109.65 192.16, 1134.01 203.59, 1156.14 213.97 M1156.14 213.97 C1177.43 226.87, 1198.72 239.77, 1228.38 257.73 M1228.38 257.73 C1239.8 265.8, 1251.23 273.88, 1268.35 285.98 M1268.35 285.98 C1277.46 291.82, 1286.57 297.65, 1298.41 305.23 M1298.41 305.23 C1304.1 306.57, 1309.78 307.91, 1313 308.67 M1313 308.67 C1318.92 306.13, 1324.84 303.6, 1328.15 302.18 M1328.15 302.18 C1339.78 298.25, 1351.4 294.32, 1367.91 288.74 M1367.91 288.74 C1375.92 285.1, 1383.94 281.46, 1400.57 273.92 M1400.57 273.92 C1401.5 271.76, 1402.44 269.61, 1404.9 263.93 M1404.9 263.93 C1406.6 261.65, 1408.29 259.36, 1409.37 257.91 M1409.37 257.91 C1427.72 252.28, 1446.06 246.65, 1455.7 243.69 M1455.7 243.69 C1456.81 241.02, 1457.91 238.36, 1458.47 237.02 M1458.47 237.02 C1455.53 233.3, 1452.59 229.58, 1449.15 225.22 M1449.15 225.22 C1440.12 220, 1431.08 214.78, 1416.43 206.31 M1416.43 206.31 C1396.19 197.5, 1375.95 188.69, 1355.84 179.93 M1355.84 179.93 C1342.56 174.64, 1329.29 169.35, 1292.91 154.84 M1292.91 154.84 C1207.55 121.95, 1122.19 89.06, 1026.95 52.36 M1026.95 52.36 C955.33 23.95, 883.71 -4.47, 793.43 -40.29 M793.43 -40.29 C763.96 -52.09, 734.5 -63.89, 690.05 -81.68 M690.05 -81.68 C717.77 -65.06, 745.48 -48.43, 807.93 -10.98 M807.93 -10.98 C812.01 -9.07, 816.1 -7.17, 827.72 -1.75 M827.72 -1.75 C1003.11 67.39, 1178.5 136.54, 1400.6 224.1 M1400.6 224.1 C1377.47 234.5, 1354.34 244.9, 1314.27 262.91 M1314.27 262.91 C1140.56 185.34, 966.84 107.77, 798.13 32.43 M798.13 32.43 C806.63 22.67, 815.14 12.92, 827.85 -1.67 M827.85 -1.67 C821.48 -4.63, 815.12 -7.59, 807.88 -10.97 M807.88 -10.97 C796.48 2.99, 785.07 16.95, 774.58 29.8 M774.58 29.8 C766.89 38.15, 759.19 46.5, 747.98 58.67 M747.98 58.67 C737.26 66.1, 726.54 73.52, 698.1 93.23 M698.1 93.23 C687.13 99.41, 676.17 105.59, 670.55 108.76 M670.55 108.76 C662.83 111.62, 655.11 114.48, 633.57 122.47 M633.57 122.47 C609.68 126.68, 585.78 130.88, 570.12 133.64 M570.12 133.64 C544 133.81, 517.87 133.98, 502.83 134.08 M502.83 134.08 C493.66 133, 484.5 131.91, 458.58 128.85 M458.58 128.85 C448.69 124.76, 438.81 120.66, 410.98 109.12 M410.98 109.12 C390.88 95.72, 370.79 82.32, 359.61 74.87 M359.61 74.87 C343.26 61.73, 326.91 48.58, 311.87 36.48 M311.87 36.48 C300.88 28.34, 289.9 20.19, 261.58 -0.8 M261.58 -0.8 C252.5 -5.82, 243.42 -10.84, 233.27 -16.45 M233.27 -16.45 C225.69 -18.6, 218.12 -20.75, 201.09 -25.59 M201.09 -25.59 C181.95 -27.21, 162.82 -28.83, 147.1 -30.17 M147.1 -30.17 C146 -35.46, 144.89 -40.76, 143.58 -47.05 M143.58 -47.05 C140.65 -51.6, 137.72 -56.16, 135.67 -59.36 M135.67 -59.36 C130.1 -59.18, 124.53 -59, 118.28 -58.8 M118.28 -58.8 C114.47 -55.41, 110.65 -52.03, 102.48 -44.78 M102.48 -44.78 C85.92 -38.45, 69.37 -32.11, 59.41 -28.3 M59.41 -28.3 C46.42 -22.12, 33.44 -15.93, 0 0 M0 0 C0 0, 0 0, 0 0" stroke="#000" stroke-width="1.5" fill="none" stroke-dasharray="1.5 7"></path></g></g><mask></mask><g stroke-linecap="round"><g transform="translate(507.9040928213235 446.537814571505) rotate(0 433.7880611550763 -193.96496470519378)" fill-rule="evenodd"><path d="M0 0 L41.1 -53.76 L65.22 -74.5 L94.69 -90.61 L119.95 -98.48 L149.19 -102.98 L168.13 -101.05 L208.37 -90.43 L340.91 -41.72 L405.85 -19.88 L454.36 -11.37 L527.41 -5.96 L560.07 -0.74 L605.1 16.65 L672.17 48.34 L577.86 -15.64 L632.16 -43.65 L665.21 -64.51 L692.53 -89.64 L731.44 -140.65 L757.07 -182.95 L793.32 -245.8 L848.68 -357.23 L885.9 -436.27 L409.98 -213.62 L742.8 -379.17 L798.77 -431.2 L545.98 -302.95 L405.29 -226.83 L335.03 -179.97 L309.26 -151.42 L299.82 -134.22 L299.55 -113.98 L316.72 -69.85 L342.31 -60.66 L351.45 -57.32 L363.94 -52.73 L336.18 -74.2 L321.97 -96.8 L316.16 -121.33 L321.33 -144.09 L336.17 -159.39 L361.27 -176.12 L419.57 -205.15 L603.24 -287.63 L834.39 -386.91 L810.26 -326.95 L488.92 -185.16 L495.06 -165.43 L783.06 -287.46 L760.66 -231.37 L518.44 -113.56 L521.27 -98.33 L532.2 -92.63 L553.42 -96.12 L640.38 -132.39 L733.04 -175.95 L693.19 -124.86 L648.65 -82.73 L616.85 -58.36 L587.6 -43.04 L549.68 -32.36 L508.21 -23.7 L467.65 -22.3 L424.63 -29.42 L386.71 -41.96 L363.34 -53.1 L309.94 -72.29 L240.3 -102.94 L198.04 -115.94 L184.11 -122.44 L190.46 -129.1 L244.94 -146.43 L226.37 -149.37 L177.92 -145.97 L159.74 -134.44 L140.78 -122.13 L107.5 -115.78 L92.64 -111.3 L56.89 -90.56 L32.44 -68.09 L-18.33 0.45 L0 0" stroke="none" stroke-width="0" fill="#000" fill-rule="evenodd"></path><path d="M0 0 C12.38 -16.19, 24.76 -32.39, 41.1 -53.76 M41.1 -53.76 C50.52 -61.86, 59.94 -69.96, 65.22 -74.5 M65.22 -74.5 C71.25 -77.8, 77.28 -81.09, 94.69 -90.61 M94.69 -90.61 C104.57 -93.69, 114.44 -96.76, 119.95 -98.48 M119.95 -98.48 C130.14 -100.05, 140.32 -101.62, 149.19 -102.98 M149.19 -102.98 C156.56 -102.23, 163.92 -101.48, 168.13 -101.05 M168.13 -101.05 C182.33 -97.3, 196.53 -93.56, 208.37 -90.43 M208.37 -90.43 C249.56 -75.29, 290.76 -60.15, 340.91 -41.72 M340.91 -41.72 C355.76 -36.72, 370.62 -31.72, 405.85 -19.88 M405.85 -19.88 C415.62 -18.16, 425.4 -16.45, 454.36 -11.37 M454.36 -11.37 C469.54 -10.25, 484.72 -9.13, 527.41 -5.96 M527.41 -5.96 C537.04 -4.43, 546.66 -2.89, 560.07 -0.74 M560.07 -0.74 C576.92 5.76, 593.77 12.27, 605.1 16.65 M605.1 16.65 C623.9 25.53, 642.7 34.42, 672.17 48.34 M672.17 48.34 C644.24 29.4, 616.31 10.45, 577.86 -15.64 M577.86 -15.64 C598.18 -26.12, 618.51 -36.61, 632.16 -43.65 M632.16 -43.65 C640.64 -49, 649.13 -54.36, 665.21 -64.51 M665.21 -64.51 C675.77 -74.23, 686.34 -83.95, 692.53 -89.64 M692.53 -89.64 C703.63 -104.2, 714.74 -118.75, 731.44 -140.65 M731.44 -140.65 C741.46 -157.18, 751.47 -173.71, 757.07 -182.95 M757.07 -182.95 C771.17 -207.4, 785.28 -231.85, 793.32 -245.8 M793.32 -245.8 C815 -289.43, 836.67 -333.06, 848.68 -357.23 M848.68 -357.23 C862.95 -387.54, 877.23 -417.85, 885.9 -436.27 M885.9 -436.27 C698.07 -348.4, 510.24 -260.53, 409.98 -213.62 M409.98 -213.62 C517.98 -267.34, 625.97 -321.06, 742.8 -379.17 M742.8 -379.17 C758.2 -393.48, 773.6 -407.8, 798.77 -431.2 M798.77 -431.2 C713.03 -387.7, 627.29 -344.2, 545.98 -302.95 M545.98 -302.95 C511.38 -284.23, 476.79 -265.52, 405.29 -226.83 M405.29 -226.83 C387.22 -214.78, 369.16 -202.73, 335.03 -179.97 M335.03 -179.97 C326.61 -170.64, 318.18 -161.3, 309.26 -151.42 M309.26 -151.42 C306.98 -147.26, 304.7 -143.1, 299.82 -134.22 M299.82 -134.22 C299.76 -129.89, 299.7 -125.57, 299.55 -113.98 M299.55 -113.98 C303.35 -104.21, 307.16 -94.43, 316.72 -69.85 M316.72 -69.85 C325.57 -66.67, 334.43 -63.49, 342.31 -60.66 M342.31 -60.66 C345.25 -59.59, 348.19 -58.52, 351.45 -57.32 M351.45 -57.32 C356.16 -55.59, 360.86 -53.86, 363.94 -52.73 M363.94 -52.73 C355.8 -59.02, 347.67 -65.31, 336.18 -74.2 M336.18 -74.2 C332.76 -79.64, 329.33 -85.09, 321.97 -96.8 M321.97 -96.8 C319.95 -105.34, 317.93 -113.88, 316.16 -121.33 M316.16 -121.33 C317.31 -126.42, 318.47 -131.5, 321.33 -144.09 M321.33 -144.09 C327.07 -150.02, 332.82 -155.94, 336.17 -159.39 M336.17 -159.39 C341.91 -163.22, 347.66 -167.05, 361.27 -176.12 M361.27 -176.12 C374.88 -182.9, 388.48 -189.67, 419.57 -205.15 M419.57 -205.15 C465.57 -225.8, 511.57 -246.46, 603.24 -287.63 M603.24 -287.63 C663.59 -313.55, 723.94 -339.47, 834.39 -386.91 M834.39 -386.91 C828.66 -372.67, 822.93 -358.43, 810.26 -326.95 M810.26 -326.95 C736.62 -294.46, 662.99 -261.97, 488.92 -185.16 M488.92 -185.16 C491.16 -177.96, 493.4 -170.75, 495.06 -165.43 M495.06 -165.43 C584.72 -203.42, 674.39 -241.42, 783.06 -287.46 M783.06 -287.46 C776.27 -270.47, 769.49 -253.48, 760.66 -231.37 M760.66 -231.37 C681.28 -192.76, 601.91 -154.15, 518.44 -113.56 M518.44 -113.56 C519.24 -109.24, 520.04 -104.93, 521.27 -98.33 M521.27 -98.33 C525.37 -96.19, 529.48 -94.05, 532.2 -92.63 M532.2 -92.63 C540.07 -93.92, 547.95 -95.22, 553.42 -96.12 M553.42 -96.12 C576.21 -105.62, 599.01 -115.13, 640.38 -132.39 M640.38 -132.39 C671.05 -146.81, 701.72 -161.22, 733.04 -175.95 M733.04 -175.95 C719.77 -158.93, 706.5 -141.92, 693.19 -124.86 M693.19 -124.86 C679.95 -112.33, 666.7 -99.8, 648.65 -82.73 M648.65 -82.73 C638.92 -75.27, 629.19 -67.81, 616.85 -58.36 M616.85 -58.36 C609.75 -54.65, 602.65 -50.93, 587.6 -43.04 M587.6 -43.04 C576.16 -39.82, 564.72 -36.6, 549.68 -32.36 M549.68 -32.36 C539.47 -30.23, 529.26 -28.09, 508.21 -23.7 M508.21 -23.7 C497.1 -23.31, 485.99 -22.93, 467.65 -22.3 M467.65 -22.3 C452.04 -24.89, 436.43 -27.47, 424.63 -29.42 M424.63 -29.42 C415.46 -32.45, 406.3 -35.48, 386.71 -41.96 M386.71 -41.96 C379.89 -45.21, 373.08 -48.46, 363.34 -53.1 M363.34 -53.1 C346.22 -59.25, 329.11 -65.4, 309.94 -72.29 M309.94 -72.29 C292.88 -79.8, 275.82 -87.31, 240.3 -102.94 M240.3 -102.94 C225.37 -107.53, 210.45 -112.12, 198.04 -115.94 M198.04 -115.94 C195.02 -117.35, 192 -118.76, 184.11 -122.44 M184.11 -122.44 C186.28 -124.71, 188.45 -126.98, 190.46 -129.1 M190.46 -129.1 C204.2 -133.47, 217.95 -137.84, 244.94 -146.43 M244.94 -146.43 C239.79 -147.24, 234.65 -148.06, 226.37 -149.37 M226.37 -149.37 C211.11 -148.3, 195.85 -147.23, 177.92 -145.97 M177.92 -145.97 C171.14 -141.67, 164.36 -137.37, 159.74 -134.44 M159.74 -134.44 C152.97 -130.04, 146.2 -125.65, 140.78 -122.13 M140.78 -122.13 C130.97 -120.26, 121.16 -118.39, 107.5 -115.78 M107.5 -115.78 C101.74 -114.04, 95.98 -112.3, 92.64 -111.3 M92.64 -111.3 C78.64 -103.17, 64.63 -95.05, 56.89 -90.56 M56.89 -90.56 C48.55 -82.89, 40.2 -75.22, 32.44 -68.09 M32.44 -68.09 C15.77 -45.59, -0.9 -23.08, -18.33 0.45 M-18.33 0.45 C-11.98 0.29, -5.62 0.14, 0 0 M0 0 C0 0, 0 0, 0 0" stroke="#000" stroke-width="1.5" fill="none" stroke-dasharray="1.5 7"></path></g></g><mask></mask><g stroke-linecap="round"><g transform="translate(71.06894848698903 626.9652805913485) rotate(318.0158154461604 138.7982493317695 -75.47553307382839)" fill-rule="evenodd"><path d="M0 0 C1.17 0.43, 5.44 0, 7.04 2.56 C8.63 5.12, -0.96 16.52, 9.59 15.35 C20.15 14.18, 42.11 -0.43, 70.36 -4.48 C98.61 -8.53, 144.87 -14.39, 179.09 -8.95 C213.31 -3.52, 251.69 20.89, 275.68 28.14 C299.66 35.39, 321.52 38.16, 323.01 34.54 C324.5 30.92, 293.91 11.19, 284.63 6.4 C275.36 1.6, 286.98 13.33, 267.36 5.76 C247.75 -1.81, 203.93 -16.1, 166.94 -39.02 C129.95 -61.94, 75.16 -111.19, 45.41 -131.76 C15.67 -152.34, 0.43 -153.51, -11.51 -162.46 C-23.45 -171.42, -22.49 -183.25, -26.22 -185.49 C-29.96 -187.73, -30.7 -179.41, -33.9 -175.9 C-37.1 -172.38, -50.96 -170.57, -45.41 -164.38 C-39.87 -158.2, -8.71 -145.29, -0.64 -138.8 C7.43 -132.3, -0.19 -128.39, 3.01 -125.41 C6.21 -122.42, 8.07 -125.37, 18.55 -120.89 C29.03 -116.4, 44.83 -113.83, 65.88 -98.5 C86.93 -83.17, 133.64 -41.57, 144.86 -28.93 C156.08 -16.28, 153.27 -26.25, 133.2 -22.62 C113.14 -18.98, 46.02 -10.23, 24.48 -7.11 C2.93 -4, 8.04 -5.11, 3.96 -3.92 C-0.12 -2.74, 0.66 -0.65, 0 0" stroke="none" stroke-width="0" fill="#000" fill-rule="evenodd"></path><path d="M0 0 C1.17 0.43, 5.44 0, 7.04 2.56 C8.63 5.12, -0.96 16.52, 9.59 15.35 C20.15 14.18, 42.11 -0.43, 70.36 -4.48 C98.61 -8.53, 144.87 -14.39, 179.09 -8.95 C213.31 -3.52, 251.69 20.89, 275.68 28.14 C299.66 35.39, 321.52 38.16, 323.01 34.54 C324.5 30.92, 293.91 11.19, 284.63 6.4 C275.36 1.6, 286.98 13.33, 267.36 5.76 C247.75 -1.81, 203.93 -16.1, 166.94 -39.02 C129.95 -61.94, 75.16 -111.19, 45.41 -131.76 C15.67 -152.34, 0.43 -153.51, -11.51 -162.46 C-23.45 -171.42, -22.49 -183.25, -26.22 -185.49 C-29.96 -187.73, -30.7 -179.41, -33.9 -175.9 C-37.1 -172.38, -50.96 -170.57, -45.41 -164.38 C-39.87 -158.2, -8.71 -145.29, -0.64 -138.8 C7.43 -132.3, -0.19 -128.39, 3.01 -125.41 C6.21 -122.42, 8.07 -125.37, 18.55 -120.89 C29.03 -116.4, 44.83 -113.83, 65.88 -98.5 C86.93 -83.17, 133.64 -41.57, 144.86 -28.93 C156.08 -16.28, 153.27 -26.25, 133.2 -22.62 C113.14 -18.98, 46.02 -10.23, 24.48 -7.11 C2.93 -4, 8.04 -5.11, 3.96 -3.92 C-0.12 -2.74, 0.66 -0.65, 0 0 M0 0 C1.17 0.43, 5.44 0, 7.04 2.56 C8.63 5.12, -0.96 16.52, 9.59 15.35 C20.15 14.18, 42.11 -0.43, 70.36 -4.48 C98.61 -8.53, 144.87 -14.39, 179.09 -8.95 C213.31 -3.52, 251.69 20.89, 275.68 28.14 C299.66 35.39, 321.52 38.16, 323.01 34.54 C324.5 30.92, 293.91 11.19, 284.63 6.4 C275.36 1.6, 286.98 13.33, 267.36 5.76 C247.75 -1.81, 203.93 -16.1, 166.94 -39.02 C129.95 -61.94, 75.16 -111.19, 45.41 -131.76 C15.67 -152.34, 0.43 -153.51, -11.51 -162.46 C-23.45 -171.42, -22.49 -183.25, -26.22 -185.49 C-29.96 -187.73, -30.7 -179.41, -33.9 -175.9 C-37.1 -172.38, -50.96 -170.57, -45.41 -164.38 C-39.87 -158.2, -8.71 -145.29, -0.64 -138.8 C7.43 -132.3, -0.19 -128.39, 3.01 -125.41 C6.21 -122.42, 8.07 -125.37, 18.55 -120.89 C29.03 -116.4, 44.83 -113.83, 65.88 -98.5 C86.93 -83.17, 133.64 -41.57, 144.86 -28.93 C156.08 -16.28, 153.27 -26.25, 133.2 -22.62 C113.14 -18.98, 46.02 -10.23, 24.48 -7.11 C2.93 -4, 8.04 -5.11, 3.96 -3.92 C-0.12 -2.74, 0.66 -0.65, 0 0" stroke="#000" stroke-width="1" fill="none"></path></g></g><mask></mask><g stroke-linecap="round"><g transform="translate(346.78981229260717 427.24654499006476) rotate(340.11880019185435 235.37581653761663 -26.154027993435335)"><path d="M0 0 C8.24 -0.91, 29.38 -3.92, 49.44 -5.43 C69.51 -6.95, 102.63 -4.95, 120.4 -9.11 C138.17 -13.28, 140.55 -20.91, 156.08 -30.41 C171.62 -39.92, 193.78 -57.58, 213.61 -66.15 C233.44 -74.72, 256.13 -80.17, 275.05 -81.83 C293.97 -83.49, 311.24 -75.68, 327.1 -76.09 C342.97 -76.51, 353.18 -86.45, 370.24 -84.32 C387.3 -82.2, 430.23 -67.02, 429.49 -63.37 C428.75 -59.72, 368.91 -69.05, 365.8 -62.41 C362.69 -55.77, 393.33 -39.27, 410.82 -23.54 C428.31 -7.8, 460.76 22.76, 470.75 32.02 M0 0 C8.24 -0.91, 29.38 -3.92, 49.44 -5.43 C69.51 -6.95, 102.63 -4.95, 120.4 -9.11 C138.17 -13.28, 140.55 -20.91, 156.08 -30.41 C171.62 -39.92, 193.78 -57.58, 213.61 -66.15 C233.44 -74.72, 256.13 -80.17, 275.05 -81.83 C293.97 -83.49, 311.24 -75.68, 327.1 -76.09 C342.97 -76.51, 353.18 -86.45, 370.24 -84.32 C387.3 -82.2, 430.23 -67.02, 429.49 -63.37 C428.75 -59.72, 368.91 -69.05, 365.8 -62.41 C362.69 -55.77, 393.33 -39.27, 410.82 -23.54 C428.31 -7.8, 460.76 22.76, 470.75 32.02" stroke="#000" stroke-width="4" fill="none"></path></g></g><mask></mask><g stroke-linecap="round"><g transform="translate(1133.2055957976063 684.122898630024) rotate(340.11880019185435 -363.4453980324661 -139.77540550752792)"><path d="M0 0 C-12.42 4.2, -41.55 19.8, -74.5 25.22 C-107.44 30.64, -148.5 43.18, -197.69 32.5 C-246.87 21.81, -319.97 3.01, -369.6 -38.88 C-419.24 -80.77, -460.05 -179.67, -495.52 -218.84 C-530.99 -258.02, -543.86 -258.39, -582.42 -273.92 C-620.98 -289.45, -702.81 -305.69, -726.89 -312.05 M0 0 C-12.42 4.2, -41.55 19.8, -74.5 25.22 C-107.44 30.64, -148.5 43.18, -197.69 32.5 C-246.87 21.81, -319.97 3.01, -369.6 -38.88 C-419.24 -80.77, -460.05 -179.67, -495.52 -218.84 C-530.99 -258.02, -543.86 -258.39, -582.42 -273.92 C-620.98 -289.45, -702.81 -305.69, -726.89 -312.05" stroke="#000" stroke-width="4" fill="none"></path></g></g><mask></mask><g stroke-linecap="round"><g transform="translate(1207.037460605463 432.34208853075063) rotate(335.30446387307416 245.90339503082942 159.97809596046437)"><path d="M0 0 C42.19 48.8, 195.03 219.73, 253.17 292.82 C311.31 365.91, 327.93 411.42, 348.85 438.54 C369.76 465.67, 361.8 451.77, 378.66 455.58 C395.52 459.4, 434.72 462.24, 450 461.44 C465.28 460.64, 460.13 458.09, 470.36 450.79 C480.59 443.48, 561.33 482.6, 511.37 417.61 C461.41 352.62, 259.07 154.04, 170.59 60.86 C82.1 -32.32, 12.13 -107.76, -19.56 -141.48 M0 0 C42.19 48.8, 195.03 219.73, 253.17 292.82 C311.31 365.91, 327.93 411.42, 348.85 438.54 C369.76 465.67, 361.8 451.77, 378.66 455.58 C395.52 459.4, 434.72 462.24, 450 461.44 C465.28 460.64, 460.13 458.09, 470.36 450.79 C480.59 443.48, 561.33 482.6, 511.37 417.61 C461.41 352.62, 259.07 154.04, 170.59 60.86 C82.1 -32.32, 12.13 -107.76, -19.56 -141.48" stroke="#000" stroke-width="4" fill="none"></path></g></g><mask></mask><g stroke-linecap="round"><g transform="translate(1233.4945822856407 421.9385420922937) rotate(335.30446387307416 234.03634560684895 203.023747531688)"><path d="M0 0 C9.28 -4.52, 18.57 -9.04, 41.29 -20.09 M0 0 C13.15 -6.4, 26.31 -12.8, 41.29 -20.09 M41.29 -20.09 C209.6 155.89, 377.92 331.87, 468.07 426.14 M41.29 -20.09 C128.58 71.18, 215.87 162.44, 468.07 426.14 M468.07 426.14 C441.16 425.72, 414.25 425.3, 372.24 424.64 M468.07 426.14 C445.67 425.79, 423.27 425.44, 372.24 424.64 M372.24 424.64 C229.3 261.58, 86.37 98.53, 0 0 M372.24 424.64 C286.32 326.63, 200.41 228.63, 0 0" stroke="#000" stroke-width="4" fill="none"></path></g></g><mask></mask><g stroke-linecap="round" transform="translate(575.5741390851927 383.87141513786275) rotate(0 28.091211015295812 28.091211015296153)"><path d="M56.18 28.09 C56.18 29.72, 56.04 31.37, 55.76 32.97 C55.47 34.57, 55.04 36.17, 54.49 37.7 C53.93 39.23, 53.23 40.73, 52.42 42.14 C51.61 43.54, 50.66 44.9, 49.61 46.15 C48.57 47.39, 47.39 48.57, 46.15 49.61 C44.9 50.66, 43.54 51.61, 42.14 52.42 C40.73 53.23, 39.23 53.93, 37.7 54.49 C36.17 55.04, 34.57 55.47, 32.97 55.76 C31.37 56.04, 29.72 56.18, 28.09 56.18 C26.47 56.18, 24.81 56.04, 23.21 55.76 C21.61 55.47, 20.01 55.04, 18.48 54.49 C16.96 53.93, 15.45 53.23, 14.05 52.42 C12.64 51.61, 11.28 50.66, 10.03 49.61 C8.79 48.57, 7.62 47.39, 6.57 46.15 C5.53 44.9, 4.58 43.54, 3.76 42.14 C2.95 40.73, 2.25 39.23, 1.69 37.7 C1.14 36.17, 0.71 34.57, 0.43 32.97 C0.14 31.37, 0 29.72, 0 28.09 C0 26.47, 0.14 24.81, 0.43 23.21 C0.71 21.61, 1.14 20.01, 1.69 18.48 C2.25 16.96, 2.95 15.45, 3.76 14.05 C4.58 12.64, 5.53 11.28, 6.57 10.03 C7.62 8.79, 8.79 7.62, 10.03 6.57 C11.28 5.53, 12.64 4.58, 14.05 3.76 C15.45 2.95, 16.96 2.25, 18.48 1.69 C20.01 1.14, 21.61 0.71, 23.21 0.43 C24.81 0.14, 26.47 0, 28.09 0 C29.72 0, 31.37 0.14, 32.97 0.43 C34.57 0.71, 36.17 1.14, 37.7 1.69 C39.23 2.25, 40.73 2.95, 42.14 3.76 C43.54 4.58, 44.9 5.53, 46.15 6.57 C47.39 7.62, 48.57 8.79, 49.61 10.03 C50.66 11.28, 51.61 12.64, 52.42 14.05 C53.23 15.45, 53.93 16.96, 54.49 18.48 C55.04 20.01, 55.47 21.61, 55.76 23.21 C56.04 24.81, 56.11 27.28, 56.18 28.09 C56.25 28.9, 56.25 27.28, 56.18 28.09" stroke="none" stroke-width="0" fill="#000"></path><path d="M56.18 28.09 C56.18 29.72, 56.04 31.37, 55.76 32.97 C55.47 34.57, 55.04 36.17, 54.49 37.7 C53.93 39.23, 53.23 40.73, 52.42 42.14 C51.61 43.54, 50.66 44.9, 49.61 46.15 C48.57 47.39, 47.39 48.57, 46.15 49.61 C44.9 50.66, 43.54 51.61, 42.14 52.42 C40.73 53.23, 39.23 53.93, 37.7 54.49 C36.17 55.04, 34.57 55.47, 32.97 55.76 C31.37 56.04, 29.72 56.18, 28.09 56.18 C26.47 56.18, 24.81 56.04, 23.21 55.76 C21.61 55.47, 20.01 55.04, 18.48 54.49 C16.96 53.93, 15.45 53.23, 14.05 52.42 C12.64 51.61, 11.28 50.66, 10.03 49.61 C8.79 48.57, 7.62 47.39, 6.57 46.15 C5.53 44.9, 4.58 43.54, 3.76 42.14 C2.95 40.73, 2.25 39.23, 1.69 37.7 C1.14 36.17, 0.71 34.57, 0.43 32.97 C0.14 31.37, 0 29.72, 0 28.09 C0 26.47, 0.14 24.81, 0.43 23.21 C0.71 21.61, 1.14 20.01, 1.69 18.48 C2.25 16.96, 2.95 15.45, 3.76 14.05 C4.58 12.64, 5.53 11.28, 6.57 10.03 C7.62 8.79, 8.79 7.62, 10.03 6.57 C11.28 5.53, 12.64 4.58, 14.05 3.76 C15.45 2.95, 16.96 2.25, 18.48 1.69 C20.01 1.14, 21.61 0.71, 23.21 0.43 C24.81 0.14, 26.47 0, 28.09 0 C29.72 0, 31.37 0.14, 32.97 0.43 C34.57 0.71, 36.17 1.14, 37.7 1.69 C39.23 2.25, 40.73 2.95, 42.14 3.76 C43.54 4.58, 44.9 5.53, 46.15 6.57 C47.39 7.62, 48.57 8.79, 49.61 10.03 C50.66 11.28, 51.61 12.64, 52.42 14.05 C53.23 15.45, 53.93 16.96, 54.49 18.48 C55.04 20.01, 55.47 21.61, 55.76 23.21 C56.04 24.81, 56.11 27.28, 56.18 28.09 C56.25 28.9, 56.25 27.28, 56.18 28.09" stroke="#000" stroke-width="4" fill="none"></path></g><g stroke-linecap="round"><g transform="translate(1082.8088621135194 390.3740014920187) rotate(292.2704923816565 -9.932804709455922 -176.70797494960988)"><path d="M0 0 C-10.48 -3.13, -38.93 -9.17, -62.91 -18.79 C-86.88 -28.4, -122.31 -43.82, -143.84 -57.7 C-165.37 -71.57, -176.39 -82.08, -192.09 -102.05 C-207.78 -122.03, -227.64 -149.92, -238 -177.54 C-248.35 -205.15, -254.3 -240.8, -254.22 -267.76 C-254.14 -294.72, -249.76 -322.72, -237.52 -339.31 C-225.27 -355.9, -204.43 -373.15, -180.76 -367.31 C-157.08 -361.48, -134.39 -338.13, -95.47 -304.28 C-56.55 -270.44, -2.22 -217.25, 52.75 -164.22 C107.72 -111.19, 204.09 -15.79, 234.36 13.9 M0 0 C-10.48 -3.13, -38.93 -9.17, -62.91 -18.79 C-86.88 -28.4, -122.31 -43.82, -143.84 -57.7 C-165.37 -71.57, -176.39 -82.08, -192.09 -102.05 C-207.78 -122.03, -227.64 -149.92, -238 -177.54 C-248.35 -205.15, -254.3 -240.8, -254.22 -267.76 C-254.14 -294.72, -249.76 -322.72, -237.52 -339.31 C-225.27 -355.9, -204.43 -373.15, -180.76 -367.31 C-157.08 -361.48, -134.39 -338.13, -95.47 -304.28 C-56.55 -270.44, -2.22 -217.25, 52.75 -164.22 C107.72 -111.19, 204.09 -15.79, 234.36 13.9" stroke="#000" stroke-width="4" fill="none"></path></g></g><mask></mask><g stroke-linecap="round"><g transform="translate(1301.651149034793 337.6032254500552) rotate(292.2704923816565 -154.41379985961612 -122.11239406488166)"><path d="M0 0 C-71.07 -68.24, -142.15 -136.49, -254.35 -244.22 M0 0 C-52.92 -50.82, -105.85 -101.63, -254.35 -244.22 M-254.35 -244.22 C-258.83 -240.42, -263.31 -236.61, -269.92 -231 M-254.35 -244.22 C-259.71 -239.67, -265.07 -235.11, -269.92 -231 M-269.92 -231 C-181.65 -143.35, -93.39 -55.7, -47.36 -9.99 M-269.92 -231 C-188.54 -150.18, -107.16 -69.37, -47.36 -9.99 M-47.36 -9.99 C-69.75 -9.99, -92.14 -9.99, -108.06 -9.99 M-47.36 -9.99 C-70.47 -9.99, -93.59 -9.99, -108.06 -9.99 M-108.06 -9.99 C-169.72 -65.21, -231.39 -120.42, -308.83 -189.75 M-108.06 -9.99 C-161.85 -58.16, -215.65 -106.33, -308.83 -189.75" stroke="#000" stroke-width="4" fill="none"></path></g></g><mask></mask><g stroke-linecap="round"><g transform="translate(1067.9913924907396 220.90001634992097) rotate(292.2704923816565 62.573752216056164 87.84270116941906)"><path d="M0 0 C-2.33 3.05, -16.42 8.65, -14 18.31 C-11.57 27.97, -11 31.74, 14.53 57.97 C40.05 84.2, 118.37 156.07, 139.14 175.69 M0 0 C-2.33 3.05, -16.42 8.65, -14 18.31 C-11.57 27.97, -11 31.74, 14.53 57.97 C40.05 84.2, 118.37 156.07, 139.14 175.69" stroke="#000" stroke-width="4" fill="none"></path></g></g><mask></mask><g stroke-linecap="round"><g transform="translate(1249.6812781973586 67.94993915352336) rotate(0 -93.22588757799076 53.26225825923757)"><path d="M0 0 C-55.08 27.41, -354.51 174.12, -330.51 164.46 C-306.5 154.8, 64.96 -20.87, 144.05 -57.94 M0 0 C-55.08 27.41, -354.51 174.12, -330.51 164.46 C-306.5 154.8, 64.96 -20.87, 144.05 -57.94" stroke="#000" stroke-width="4" fill="none"></path></g></g><mask></mask><g stroke-linecap="round"><g transform="translate(1081.247284364772 432.5435390275753) rotate(0 156.27953194105703 -211.27176951378766)"><path d="M0 0 C16.94 -9.81, 71.12 -31.05, 101.64 -58.89 C132.16 -86.72, 156.17 -123.57, 183.11 -167 C210.04 -210.42, 241.68 -276.84, 263.26 -319.43 C284.83 -362.02, 304.34 -405.36, 312.56 -422.54 M0 0 C16.94 -9.81, 71.12 -31.05, 101.64 -58.89 C132.16 -86.72, 156.17 -123.57, 183.11 -167 C210.04 -210.42, 241.68 -276.84, 263.26 -319.43 C284.83 -362.02, 304.34 -405.36, 312.56 -422.54" stroke="#000" stroke-width="4" fill="none"></path></g></g><mask></mask><g stroke-linecap="round"><g transform="translate(803.3377172251658 344.6816778630956) rotate(352.90177224703075 261.95593251586433 -148.8985068538683)"><path d="M0 0 C-0.12 -12.62, -22.13 -50.58, -0.74 -75.72 C20.64 -100.86, 40.73 -113.83, 128.3 -150.85 C215.87 -187.86, 458.6 -273.31, 524.66 -297.8 M0 0 C-0.12 -12.62, -22.13 -50.58, -0.74 -75.72 C20.64 -100.86, 40.73 -113.83, 128.3 -150.85 C215.87 -187.86, 458.6 -273.31, 524.66 -297.8" stroke="#000" stroke-width="4" fill="none"></path></g></g><mask></mask><g stroke-linecap="round"><g transform="translate(1307.3634104173052 15.446102911486037) rotate(0 -28.571469777251878 26.09895627622882)"><path d="M0 0 C-9.52 8.7, -47.62 43.5, -57.14 52.2 M0 0 C-9.52 8.7, -47.62 43.5, -57.14 52.2" stroke="#000" stroke-width="4" fill="none"></path></g></g><mask></mask><g stroke-linecap="round"><g transform="translate(508.2485501551 447.1317922414147) rotate(0 335.86138761431357 -27.559368549442695)"><path d="M0 0 C10.26 -12.08, 38.06 -55.37, 61.54 -72.48 C85.02 -89.6, 114.9 -100.19, 140.9 -102.67 C166.9 -105.15, 172.85 -101.14, 217.56 -87.36 C262.28 -73.58, 353.21 -34.18, 409.21 -20.02 C465.21 -5.85, 509.79 -13.62, 553.54 -2.36 C597.29 8.91, 652.03 39.24, 671.72 47.55 M0 0 C10.26 -12.08, 38.06 -55.37, 61.54 -72.48 C85.02 -89.6, 114.9 -100.19, 140.9 -102.67 C166.9 -105.15, 172.85 -101.14, 217.56 -87.36 C262.28 -73.58, 353.21 -34.18, 409.21 -20.02 C465.21 -5.85, 509.79 -13.62, 553.54 -2.36 C597.29 8.91, 652.03 39.24, 671.72 47.55" stroke="#000" stroke-width="4" fill="none"></path></g></g><mask></mask><g stroke-linecap="round"><g transform="translate(508.5743647659565 447.7943420158491) rotate(0 5.1868702725532785 13.948953880485021)"><path d="M0 0 C1.2 1.94, 5.45 7, 7.18 11.65 C8.9 16.3, 9.84 25.19, 10.37 27.9 M0 0 C1.2 1.94, 5.45 7, 7.18 11.65 C8.9 16.3, 9.84 25.19, 10.37 27.9" stroke="#000" stroke-width="4" fill="none"></path></g></g><mask></mask><g stroke-linecap="round"><g transform="translate(519.5821099061159 475.8158336777152) rotate(0 330.53899017902404 81.74627056930382)"><path d="M0 0 C16.16 3.15, 54.33 -3.55, 96.94 18.89 C139.55 41.33, 212.27 110.53, 255.64 134.63 C299.02 158.73, 318.1 160.73, 357.18 163.49 C396.25 166.25, 450.52 163.03, 490.1 151.19 C529.67 139.36, 566.14 114.53, 594.63 92.48 C623.13 70.43, 650 31.14, 661.08 18.88 M0 0 C16.16 3.15, 54.33 -3.55, 96.94 18.89 C139.55 41.33, 212.27 110.53, 255.64 134.63 C299.02 158.73, 318.1 160.73, 357.18 163.49 C396.25 166.25, 450.52 163.03, 490.1 151.19 C529.67 139.36, 566.14 114.53, 594.63 92.48 C623.13 70.43, 650 31.14, 661.08 18.88" stroke="#000" stroke-width="4" fill="none"></path></g></g><mask></mask><g stroke-linecap="round"><g transform="translate(1342.1025225078647 59.896908761448344) rotate(0 -11.821245493459173 29.476256554536462)"><path d="M0 0 C-3.94 9.83, -19.7 49.13, -23.64 58.95 M0 0 C-3.94 9.83, -19.7 49.13, -23.64 58.95" stroke="#000" stroke-width="4" fill="none"></path></g></g><mask></mask><g stroke-linecap="round" transform="translate(1105.4591883051053 589.7856037998855) rotate(331.711809230912 8.798222036552033 32.92345238396945)"><path d="M0 0 L17.6 0 L17.6 65.85 L0 65.85" stroke="none" stroke-width="0" fill="#000"></path><path d="M0 0 C6.7 0, 13.41 0, 17.6 0 M0 0 C4.39 0, 8.77 0, 17.6 0 M17.6 0 C17.6 17.51, 17.6 35.03, 17.6 65.85 M17.6 0 C17.6 25.52, 17.6 51.03, 17.6 65.85 M17.6 65.85 C12.77 65.85, 7.94 65.85, 0 65.85 M17.6 65.85 C12.91 65.85, 8.22 65.85, 0 65.85 M0 65.85 C0 45.5, 0 25.15, 0 0 M0 65.85 C0 45.36, 0 24.87, 0 0" stroke="#000" stroke-width="4" fill="none"></path></g><g stroke-linecap="round" transform="translate(1076.2033736277172 642.4540765173216) rotate(21.97990529246988 6.302190632700331 28.60455668849869)"><path d="M0 0 L12.6 0 L12.6 57.21 L0 57.21" stroke="none" stroke-width="0" fill="#000"></path><path d="M0 0 C3.54 0, 7.08 0, 12.6 0 M0 0 C2.95 0, 5.89 0, 12.6 0 M12.6 0 C12.6 21.97, 12.6 43.93, 12.6 57.21 M12.6 0 C12.6 13.2, 12.6 26.41, 12.6 57.21 M12.6 57.21 C7.72 57.21, 2.83 57.21, 0 57.21 M12.6 57.21 C9.51 57.21, 6.41 57.21, 0 57.21 M0 57.21 C0 34.86, 0 12.5, 0 0 M0 57.21 C0 44.43, 0 31.65, 0 0" stroke="#000" stroke-width="4" fill="none"></path></g><g stroke-linecap="round" transform="translate(1114.6285726646183 643.8355140211189) rotate(21.97990529246988 6.302190632700331 28.60455668849869)"><path d="M0 0 L12.6 0 L12.6 57.21 L0 57.21" stroke="none" stroke-width="0" fill="#000"></path><path d="M0 0 C3.71 0, 7.42 0, 12.6 0 M0 0 C4.55 0, 9.09 0, 12.6 0 M12.6 0 C12.6 15.79, 12.6 31.58, 12.6 57.21 M12.6 0 C12.6 19.36, 12.6 38.72, 12.6 57.21 M12.6 57.21 C9.09 57.21, 5.58 57.21, 0 57.21 M12.6 57.21 C8.47 57.21, 4.35 57.21, 0 57.21 M0 57.21 C0 38.45, 0 19.68, 0 0 M0 57.21 C0 36.54, 0 15.88, 0 0" stroke="#000" stroke-width="4" fill="none"></path></g><g stroke-linecap="round" transform="translate(1074.7579067665592 621.9260307768365) rotate(331.711809230912 9.057040375629185 15.280228184962368)"><path d="M0 0 L18.11 0 L18.11 30.56 L0 30.56" stroke="none" stroke-width="0" fill="#000"></path><path d="M0 0 C6.39 0, 12.78 0, 18.11 0 M0 0 C5.63 0, 11.26 0, 18.11 0 M18.11 0 C18.11 6.99, 18.11 13.98, 18.11 30.56 M18.11 0 C18.11 6.16, 18.11 12.32, 18.11 30.56 M18.11 30.56 C14.35 30.56, 10.59 30.56, 0 30.56 M18.11 30.56 C12.78 30.56, 7.44 30.56, 0 30.56 M0 30.56 C0 19.12, 0 7.69, 0 0 M0 30.56 C0 21.99, 0 13.43, 0 0" stroke="#000" stroke-width="4" fill="none"></path></g></svg>