<svg version="1.1" xmlns="http://www.w3.org/2000/svg" viewBox="0 0 1839.9438588026787 824.6380462469206" width="5519.831576408036" height="2473.9141387407617">
  <!-- svg-source:excalidraw -->
  
  <defs>
    <style class="style-fonts">
      @font-face {
        font-family: "Virgil";
        src: url("https://unpkg.com/@excalidraw/excalidraw@undefined/dist/excalidraw-assets/Virgil.woff2");
      }
      @font-face {
        font-family: "Cascadia";
        src: url("https://unpkg.com/@excalidraw/excalidraw@undefined/dist/excalidraw-assets/Cascadia.woff2");
      }
      @font-face {
        font-family: "Assistant";
        src: url("https://unpkg.com/@excalidraw/excalidraw@undefined/dist/excalidraw-assets/Assistant-Regular.woff2");
      }
    </style>
    
  </defs>
  <g stroke-linecap="round"><g transform="translate(1467.995467026005 505.65438165550677) rotate(0 -727.4494479658842 118.13725703682007)" fill-rule="evenodd"><path d="M0 0 L-77.81 -8.72 L-146.02 -13.61 L-206.85 -8.49 L-235.64 3.55 L-271.8 26.34 L-312.62 60.19 L-360.95 99.61 L-392.52 121.07 L-421.83 136.07 L-456.2 145.5 L-505.4 150.9 L-565.58 149.68 L-628.74 141.66 L-661.71 130.84 L-712.3 103.45 L-752.95 76.76 L-786.44 46.58 L-909.96 101.53 L-1001.2 142.53 L-1085.28 180.74 L-1158.18 216.45 L-1227.84 259.02 L-1267.6 287.17 L-1298.41 305.23 L-1309.23 308.98 L-1317.34 303.13 L-1362.24 289.16 L-1394.38 274.44 L-1400.38 266.03 L-1404.44 257.17 L-1448.14 245.16 L-1454.9 236.6 L-1449.04 226.69 L-1419.54 208.69 L-1393.01 196.6 L-1357.38 181.21 L-1023.71 52.73 L-792.33 -40.11 L-709.1 -72.71 L-808.56 -11.09 L-829.44 -2.5 L-1400.6 224.1 L-1314.27 262.91 L-798.13 32.43 L-827.96 -3.04 L-808.62 -11.08 L-774.58 29.8 L-747.98 58.67 L-698.1 93.23 L-670.55 108.76 L-633.57 122.47 L-570.12 133.64 L-502.83 134.08 L-458.58 128.85 L-410.98 109.12 L-359.61 74.87 L-311.87 36.48 L-261.58 -0.8 L-233.27 -16.45 L-201.09 -25.59 L-147.1 -30.17 L-143.58 -47.05 L-135.67 -59.36 L-118.28 -58.8 L-102.48 -44.78 L-59.41 -28.3 L0 0" stroke="none" stroke-width="0" fill="#ffffff" fill-rule="evenodd"></path><path d="M0 0 C-21.68 -2.43, -43.36 -4.86, -77.81 -8.72 M-77.81 -8.72 C-102.43 -10.49, -127.06 -12.25, -146.02 -13.61 M-146.02 -13.61 C-167.57 -11.8, -189.13 -9.98, -206.85 -8.49 M-206.85 -8.49 C-213.66 -5.65, -220.46 -2.8, -235.64 3.55 M-235.64 3.55 C-248.81 11.85, -261.98 20.15, -271.8 26.34 M-271.8 26.34 C-282.28 35.03, -292.75 43.71, -312.62 60.19 M-312.62 60.19 C-328.87 73.45, -345.12 86.7, -360.95 99.61 M-360.95 99.61 C-372.47 107.44, -383.99 115.27, -392.52 121.07 M-392.52 121.07 C-400.6 125.2, -408.67 129.34, -421.83 136.07 M-421.83 136.07 C-434.77 139.62, -447.7 143.17, -456.2 145.5 M-456.2 145.5 C-470.52 147.07, -484.84 148.64, -505.4 150.9 M-505.4 150.9 C-529.46 150.42, -553.53 149.93, -565.58 149.68 M-565.58 149.68 C-579.85 147.87, -594.11 146.06, -628.74 141.66 M-628.74 141.66 C-640.59 137.77, -652.45 133.88, -661.71 130.84 M-661.71 130.84 C-681.09 120.35, -700.47 109.85, -712.3 103.45 M-712.3 103.45 C-721.13 97.65, -729.96 91.85, -752.95 76.76 M-752.95 76.76 C-764.86 66.03, -776.77 55.3, -786.44 46.58 M-786.44 46.58 C-822.74 62.73, -859.05 78.88, -909.96 101.53 M-909.96 101.53 C-942.18 116.01, -974.4 130.49, -1001.2 142.53 M-1001.2 142.53 C-1025.71 153.67, -1050.23 164.81, -1085.28 180.74 M-1085.28 180.74 C-1102.14 188.99, -1118.99 197.25, -1158.18 216.45 M-1158.18 216.45 C-1173.18 225.62, -1188.19 234.79, -1227.84 259.02 M-1227.84 259.02 C-1236.53 265.17, -1245.22 271.32, -1267.6 287.17 M-1267.6 287.17 C-1279.79 294.31, -1291.97 301.45, -1298.41 305.23 M-1298.41 305.23 C-1302.15 306.53, -1305.89 307.83, -1309.23 308.98 M-1309.23 308.98 C-1310.92 307.76, -1312.61 306.54, -1317.34 303.13 M-1317.34 303.13 C-1334.1 297.91, -1350.87 292.7, -1362.24 289.16 M-1362.24 289.16 C-1371.89 284.74, -1381.55 280.32, -1394.38 274.44 M-1394.38 274.44 C-1395.7 272.6, -1397.01 270.75, -1400.38 266.03 M-1400.38 266.03 C-1401.63 263.32, -1402.87 260.6, -1404.44 257.17 M-1404.44 257.17 C-1417.03 253.71, -1429.63 250.25, -1448.14 245.16 M-1448.14 245.16 C-1450.01 242.8, -1451.87 240.43, -1454.9 236.6 M-1454.9 236.6 C-1453.15 233.64, -1451.41 230.69, -1449.04 226.69 M-1449.04 226.69 C-1437.52 219.65, -1425.99 212.62, -1419.54 208.69 M-1419.54 208.69 C-1413.97 206.15, -1408.4 203.61, -1393.01 196.6 M-1393.01 196.6 C-1379.11 190.6, -1365.21 184.59, -1357.38 181.21 M-1357.38 181.21 C-1272.33 148.47, -1187.29 115.72, -1023.71 52.73 M-1023.71 52.73 C-956.4 25.72, -889.09 -1.28, -792.33 -40.11 M-792.33 -40.11 C-770.48 -48.66, -748.64 -57.22, -709.1 -72.71 M-709.1 -72.71 C-729.96 -59.78, -750.83 -46.86, -808.56 -11.09 M-808.56 -11.09 C-814.59 -8.61, -820.63 -6.12, -829.44 -2.5 M-829.44 -2.5 C-992.42 62.16, -1155.4 126.82, -1400.6 224.1 M-1400.6 224.1 C-1370.75 237.52, -1340.9 250.94, -1314.27 262.91 M-1314.27 262.91 C-1159.54 193.82, -1004.81 124.72, -798.13 32.43 M-798.13 32.43 C-804.89 24.39, -811.66 16.35, -827.96 -3.04 M-827.96 -3.04 C-824.08 -4.66, -820.19 -6.27, -808.62 -11.08 M-808.62 -11.08 C-800.56 -1.4, -792.5 8.28, -774.58 29.8 M-774.58 29.8 C-765.97 39.14, -757.36 48.49, -747.98 58.67 M-747.98 58.67 C-736.98 66.29, -725.99 73.91, -698.1 93.23 M-698.1 93.23 C-689.49 98.08, -680.88 102.93, -670.55 108.76 M-670.55 108.76 C-659.87 112.72, -649.19 116.68, -633.57 122.47 M-633.57 122.47 C-611.8 126.3, -590.03 130.14, -570.12 133.64 M-570.12 133.64 C-553.35 133.75, -536.58 133.86, -502.83 134.08 M-502.83 134.08 C-492.03 132.8, -481.23 131.53, -458.58 128.85 M-458.58 128.85 C-442.78 122.3, -426.98 115.75, -410.98 109.12 M-410.98 109.12 C-394.61 98.21, -378.24 87.29, -359.61 74.87 M-359.61 74.87 C-349.16 66.47, -338.71 58.06, -311.87 36.48 M-311.87 36.48 C-298.42 26.51, -284.98 16.54, -261.58 -0.8 M-261.58 -0.8 C-251.04 -6.62, -240.5 -12.45, -233.27 -16.45 M-233.27 -16.45 C-226.54 -18.36, -219.81 -20.27, -201.09 -25.59 M-201.09 -25.59 C-186.96 -26.79, -172.83 -27.99, -147.1 -30.17 M-147.1 -30.17 C-146.39 -33.59, -145.67 -37.02, -143.58 -47.05 M-143.58 -47.05 C-141.26 -50.66, -138.94 -54.26, -135.67 -59.36 M-135.67 -59.36 C-130.95 -59.2, -126.23 -59.05, -118.28 -58.8 M-118.28 -58.8 C-114.54 -55.48, -110.81 -52.17, -102.48 -44.78 M-102.48 -44.78 C-88.69 -39.51, -74.9 -34.23, -59.41 -28.3 M-59.41 -28.3 C-38.38 -18.28, -17.35 -8.27, 0 0 M0 0 C0 0, 0 0, 0 0" stroke="#ffffff" stroke-width="1.5" fill="none" stroke-dasharray="1.5 7"></path></g></g><mask></mask><g stroke-linecap="round"><g transform="translate(1332.0397659813534 446.5378145715049) rotate(0 -433.7880611550763 -193.96496470519378)" fill-rule="evenodd"><path d="M0 0 L-41.1 -53.76 L-65.22 -74.5 L-94.69 -90.61 L-119.95 -98.48 L-149.19 -102.98 L-168.13 -101.05 L-208.37 -90.43 L-340.91 -41.72 L-405.85 -19.88 L-454.36 -11.37 L-527.41 -5.96 L-560.07 -0.74 L-605.1 16.65 L-672.17 48.34 L-575.34 -15.05 L-632.16 -43.65 L-665.21 -64.51 L-692.53 -89.64 L-731.44 -140.65 L-757.07 -182.95 L-793.32 -245.8 L-848.68 -357.23 L-885.9 -436.27 L-409.98 -213.62 L-742.8 -379.17 L-798.77 -431.2 L-545.98 -302.95 L-405.29 -226.83 L-335.03 -179.97 L-309.26 -151.42 L-299.82 -134.22 L-299.55 -113.98 L-316.16 -70.33 L-363.94 -52.73 L-336.18 -74.2 L-321.97 -96.8 L-316.16 -121.33 L-321.33 -144.09 L-336.17 -159.39 L-361.27 -176.12 L-419.57 -205.15 L-603.24 -287.63 L-834.39 -386.91 L-810.26 -326.95 L-488.92 -185.16 L-495.06 -165.43 L-783.06 -287.46 L-760.66 -231.37 L-518.44 -113.56 L-521.27 -98.33 L-532.2 -92.63 L-553.42 -96.12 L-640.38 -132.39 L-733.04 -175.95 L-693.19 -124.86 L-648.65 -82.73 L-616.85 -58.36 L-587.6 -43.04 L-549.68 -32.36 L-508.21 -23.7 L-467.65 -22.3 L-424.63 -29.42 L-386.71 -41.96 L-363.34 -53.1 L-309.94 -72.29 L-240.3 -102.94 L-198.04 -115.94 L-184.11 -122.44 L-190.46 -129.1 L-244.94 -146.43 L-226.37 -149.37 L-177.92 -145.97 L-159.74 -134.44 L-140.78 -122.13 L-107.5 -115.78 L-92.64 -111.3 L-56.89 -90.56 L-32.44 -68.09 L18.33 0.45 L0 0" stroke="none" stroke-width="0" fill="#ffffff" fill-rule="evenodd"></path><path d="M0 0 C-11.04 -14.44, -22.09 -28.89, -41.1 -53.76 M-41.1 -53.76 C-47.48 -59.24, -53.86 -64.73, -65.22 -74.5 M-65.22 -74.5 C-74.46 -79.55, -83.69 -84.6, -94.69 -90.61 M-94.69 -90.61 C-101.55 -92.75, -108.4 -94.88, -119.95 -98.48 M-119.95 -98.48 C-129.67 -99.98, -139.39 -101.47, -149.19 -102.98 M-149.19 -102.98 C-156.25 -102.26, -163.3 -101.54, -168.13 -101.05 M-168.13 -101.05 C-183.16 -97.08, -198.18 -93.12, -208.37 -90.43 M-208.37 -90.43 C-248.96 -75.51, -289.54 -60.6, -340.91 -41.72 M-340.91 -41.72 C-354.39 -37.18, -367.87 -32.65, -405.85 -19.88 M-405.85 -19.88 C-424.52 -16.6, -443.19 -13.33, -454.36 -11.37 M-454.36 -11.37 C-480.48 -9.44, -506.61 -7.5, -527.41 -5.96 M-527.41 -5.96 C-534.55 -4.82, -541.68 -3.68, -560.07 -0.74 M-560.07 -0.74 C-570.25 3.19, -580.43 7.12, -605.1 16.65 M-605.1 16.65 C-627.58 27.27, -650.05 37.89, -672.17 48.34 M-672.17 48.34 C-640.87 27.86, -609.58 7.37, -575.34 -15.05 M-575.34 -15.05 C-592.59 -23.73, -609.85 -32.42, -632.16 -43.65 M-632.16 -43.65 C-645.23 -51.9, -658.31 -60.15, -665.21 -64.51 M-665.21 -64.51 C-674.92 -73.44, -684.62 -82.37, -692.53 -89.64 M-692.53 -89.64 C-702.4 -102.59, -712.28 -115.54, -731.44 -140.65 M-731.44 -140.65 C-739.27 -153.58, -747.1 -166.5, -757.07 -182.95 M-757.07 -182.95 C-767.97 -201.86, -778.88 -220.76, -793.32 -245.8 M-793.32 -245.8 C-814.15 -287.72, -834.97 -329.64, -848.68 -357.23 M-848.68 -357.23 C-862.08 -385.68, -875.48 -414.13, -885.9 -436.27 M-885.9 -436.27 C-735.16 -365.75, -584.41 -295.22, -409.98 -213.62 M-409.98 -213.62 C-477.54 -247.23, -545.1 -280.83, -742.8 -379.17 M-742.8 -379.17 C-755.5 -390.97, -768.2 -402.78, -798.77 -431.2 M-798.77 -431.2 C-703.09 -382.66, -607.41 -334.12, -545.98 -302.95 M-545.98 -302.95 C-506.88 -281.8, -467.79 -260.65, -405.29 -226.83 M-405.29 -226.83 C-381.42 -210.91, -357.55 -194.99, -335.03 -179.97 M-335.03 -179.97 C-326.4 -170.41, -317.78 -160.86, -309.26 -151.42 M-309.26 -151.42 C-306.69 -146.73, -304.11 -142.03, -299.82 -134.22 M-299.82 -134.22 C-299.74 -128.59, -299.67 -122.96, -299.55 -113.98 M-299.55 -113.98 C-303.29 -104.14, -307.04 -94.3, -316.16 -70.33 M-316.16 -70.33 C-326.96 -66.35, -337.75 -62.38, -363.94 -52.73 M-363.94 -52.73 C-354.68 -59.89, -345.42 -67.05, -336.18 -74.2 M-336.18 -74.2 C-332.55 -79.97, -328.92 -85.74, -321.97 -96.8 M-321.97 -96.8 C-319.93 -105.41, -317.9 -114.01, -316.16 -121.33 M-316.16 -121.33 C-317.32 -126.45, -318.48 -131.56, -321.33 -144.09 M-321.33 -144.09 C-325.43 -148.32, -329.53 -152.55, -336.17 -159.39 M-336.17 -159.39 C-343.58 -164.34, -351 -169.28, -361.27 -176.12 M-361.27 -176.12 C-377.79 -184.35, -394.3 -192.57, -419.57 -205.15 M-419.57 -205.15 C-484.59 -234.35, -549.61 -263.54, -603.24 -287.63 M-603.24 -287.63 C-683.09 -321.93, -762.93 -356.22, -834.39 -386.91 M-834.39 -386.91 C-826.35 -366.93, -818.31 -346.95, -810.26 -326.95 M-810.26 -326.95 C-692.35 -274.92, -574.43 -222.89, -488.92 -185.16 M-488.92 -185.16 C-490.36 -180.53, -491.8 -175.89, -495.06 -165.43 M-495.06 -165.43 C-555.5 -191.04, -615.94 -216.65, -783.06 -287.46 M-783.06 -287.46 C-777.43 -273.36, -771.8 -259.26, -760.66 -231.37 M-760.66 -231.37 C-706.83 -205.19, -653.01 -179.01, -518.44 -113.56 M-518.44 -113.56 C-519.54 -107.66, -520.63 -101.76, -521.27 -98.33 M-521.27 -98.33 C-524.18 -96.82, -527.09 -95.3, -532.2 -92.63 M-532.2 -92.63 C-540.29 -93.96, -548.39 -95.29, -553.42 -96.12 M-553.42 -96.12 C-574.83 -105.05, -596.25 -113.98, -640.38 -132.39 M-640.38 -132.39 C-670.89 -146.73, -701.39 -161.07, -733.04 -175.95 M-733.04 -175.95 C-719.6 -158.72, -706.16 -141.49, -693.19 -124.86 M-693.19 -124.86 C-684.13 -116.29, -675.07 -107.71, -648.65 -82.73 M-648.65 -82.73 C-638.71 -75.11, -628.77 -67.49, -616.85 -58.36 M-616.85 -58.36 C-608.74 -54.12, -600.63 -49.87, -587.6 -43.04 M-587.6 -43.04 C-573.48 -39.06, -559.35 -35.09, -549.68 -32.36 M-549.68 -32.36 C-539.5 -30.24, -529.32 -28.11, -508.21 -23.7 M-508.21 -23.7 C-497.19 -23.32, -486.17 -22.94, -467.65 -22.3 M-467.65 -22.3 C-457.05 -24.06, -446.44 -25.81, -424.63 -29.42 M-424.63 -29.42 C-411.43 -33.78, -398.24 -38.15, -386.71 -41.96 M-386.71 -41.96 C-377.73 -46.24, -368.74 -50.52, -363.34 -53.1 M-363.34 -53.1 C-349.98 -57.9, -336.63 -62.7, -309.94 -72.29 M-309.94 -72.29 C-285.54 -83.03, -261.14 -93.77, -240.3 -102.94 M-240.3 -102.94 C-224.83 -107.7, -209.35 -112.46, -198.04 -115.94 M-198.04 -115.94 C-193.23 -118.18, -188.43 -120.43, -184.11 -122.44 M-184.11 -122.44 C-186.34 -124.78, -188.57 -127.12, -190.46 -129.1 M-190.46 -129.1 C-206.84 -134.31, -223.22 -139.52, -244.94 -146.43 M-244.94 -146.43 C-238.32 -147.48, -231.71 -148.52, -226.37 -149.37 M-226.37 -149.37 C-216.6 -148.68, -206.83 -148, -177.92 -145.97 M-177.92 -145.97 C-171.47 -141.87, -165.01 -137.78, -159.74 -134.44 M-159.74 -134.44 C-153.9 -130.65, -148.07 -126.86, -140.78 -122.13 M-140.78 -122.13 C-128.34 -119.76, -115.9 -117.39, -107.5 -115.78 M-107.5 -115.78 C-103.41 -114.55, -99.31 -113.31, -92.64 -111.3 M-92.64 -111.3 C-84.85 -106.77, -77.05 -102.25, -56.89 -90.56 M-56.89 -90.56 C-47.59 -82.01, -38.28 -73.46, -32.44 -68.09 M-32.44 -68.09 C-17.14 -47.44, -1.85 -26.79, 18.33 0.45 M18.33 0.45 C13.97 0.34, 9.61 0.24, 0 0 M0 0 C0 0, 0 0, 0 0" stroke="#ffffff" stroke-width="1.5" fill="none" stroke-dasharray="1.5 7"></path></g></g><mask></mask><g stroke-linecap="round"><g transform="translate(1768.8749103156879 626.9652805913483) rotate(41.9841845538396 -138.7982493317695 -75.4755330738285)" fill-rule="evenodd"><path d="M0 0 C-1.17 0.43, -5.44 0, -7.04 2.56 C-8.63 5.12, 0.96 16.52, -9.59 15.35 C-20.15 14.18, -42.11 -0.43, -70.36 -4.48 C-98.61 -8.53, -144.87 -14.39, -179.09 -8.95 C-213.31 -3.52, -251.69 20.89, -275.68 28.14 C-299.66 35.39, -321.52 38.16, -323.01 34.54 C-324.5 30.92, -293.91 11.19, -284.63 6.4 C-275.36 1.6, -286.98 13.33, -267.36 5.76 C-247.75 -1.81, -203.93 -16.1, -166.94 -39.02 C-129.95 -61.94, -75.16 -111.19, -45.41 -131.76 C-15.67 -152.34, -0.43 -153.51, 11.51 -162.46 C23.45 -171.42, 22.49 -183.25, 26.22 -185.49 C29.96 -187.73, 30.7 -179.41, 33.9 -175.9 C37.1 -172.38, 50.96 -170.57, 45.41 -164.38 C39.87 -158.2, 8.71 -145.29, 0.64 -138.8 C-7.43 -132.3, 0.19 -128.39, -3.01 -125.41 C-6.21 -122.42, -8.07 -125.37, -18.55 -120.89 C-29.03 -116.4, -44.83 -113.83, -65.88 -98.5 C-86.93 -83.17, -133.64 -41.57, -144.86 -28.93 C-156.08 -16.28, -153.27 -26.25, -133.2 -22.62 C-113.14 -18.98, -46.02 -10.23, -24.48 -7.11 C-2.93 -4, -8.04 -5.11, -3.96 -3.92 C0.12 -2.74, -0.66 -0.65, 0 0" stroke="none" stroke-width="0" fill="#ffffff" fill-rule="evenodd"></path><path d="M0 0 C-1.17 0.43, -5.44 0, -7.04 2.56 C-8.63 5.12, 0.96 16.52, -9.59 15.35 C-20.15 14.18, -42.11 -0.43, -70.36 -4.48 C-98.61 -8.53, -144.87 -14.39, -179.09 -8.95 C-213.31 -3.52, -251.69 20.89, -275.68 28.14 C-299.66 35.39, -321.52 38.16, -323.01 34.54 C-324.5 30.92, -293.91 11.19, -284.63 6.4 C-275.36 1.6, -286.98 13.33, -267.36 5.76 C-247.75 -1.81, -203.93 -16.1, -166.94 -39.02 C-129.95 -61.94, -75.16 -111.19, -45.41 -131.76 C-15.67 -152.34, -0.43 -153.51, 11.51 -162.46 C23.45 -171.42, 22.49 -183.25, 26.22 -185.49 C29.96 -187.73, 30.7 -179.41, 33.9 -175.9 C37.1 -172.38, 50.96 -170.57, 45.41 -164.38 C39.87 -158.2, 8.71 -145.29, 0.64 -138.8 C-7.43 -132.3, 0.19 -128.39, -3.01 -125.41 C-6.21 -122.42, -8.07 -125.37, -18.55 -120.89 C-29.03 -116.4, -44.83 -113.83, -65.88 -98.5 C-86.93 -83.17, -133.64 -41.57, -144.86 -28.93 C-156.08 -16.28, -153.27 -26.25, -133.2 -22.62 C-113.14 -18.98, -46.02 -10.23, -24.48 -7.11 C-2.93 -4, -8.04 -5.11, -3.96 -3.92 C0.12 -2.74, -0.66 -0.65, 0 0 M0 0 C-1.17 0.43, -5.44 0, -7.04 2.56 C-8.63 5.12, 0.96 16.52, -9.59 15.35 C-20.15 14.18, -42.11 -0.43, -70.36 -4.48 C-98.61 -8.53, -144.87 -14.39, -179.09 -8.95 C-213.31 -3.52, -251.69 20.89, -275.68 28.14 C-299.66 35.39, -321.52 38.16, -323.01 34.54 C-324.5 30.92, -293.91 11.19, -284.63 6.4 C-275.36 1.6, -286.98 13.33, -267.36 5.76 C-247.75 -1.81, -203.93 -16.1, -166.94 -39.02 C-129.95 -61.94, -75.16 -111.19, -45.41 -131.76 C-15.67 -152.34, -0.43 -153.51, 11.51 -162.46 C23.45 -171.42, 22.49 -183.25, 26.22 -185.49 C29.96 -187.73, 30.7 -179.41, 33.9 -175.9 C37.1 -172.38, 50.96 -170.57, 45.41 -164.38 C39.87 -158.2, 8.71 -145.29, 0.64 -138.8 C-7.43 -132.3, 0.19 -128.39, -3.01 -125.41 C-6.21 -122.42, -8.07 -125.37, -18.55 -120.89 C-29.03 -116.4, -44.83 -113.83, -65.88 -98.5 C-86.93 -83.17, -133.64 -41.57, -144.86 -28.93 C-156.08 -16.28, -153.27 -26.25, -133.2 -22.62 C-113.14 -18.98, -46.02 -10.23, -24.48 -7.11 C-2.93 -4, -8.04 -5.11, -3.96 -3.92 C0.12 -2.74, -0.66 -0.65, 0 0" stroke="#ffffff" stroke-width="1" fill="none"></path></g></g><mask></mask><g stroke-linecap="round"><g transform="translate(1493.1540465100697 427.24654499006465) rotate(19.88119980814563 -235.37581653761663 -26.15402799343542)"><path d="M0 0 C-8.24 -0.91, -29.38 -3.92, -49.44 -5.43 C-69.51 -6.95, -102.63 -4.95, -120.4 -9.11 C-138.17 -13.28, -140.55 -20.91, -156.08 -30.41 C-171.62 -39.92, -193.78 -57.58, -213.61 -66.15 C-233.44 -74.72, -256.13 -80.17, -275.05 -81.83 C-293.97 -83.49, -311.24 -75.68, -327.1 -76.09 C-342.97 -76.51, -353.18 -86.45, -370.24 -84.32 C-387.3 -82.2, -430.23 -67.02, -429.49 -63.37 C-428.75 -59.72, -368.91 -69.05, -365.8 -62.41 C-362.69 -55.77, -393.33 -39.27, -410.82 -23.54 C-428.31 -7.8, -460.76 22.76, -470.75 32.02 M0 0 C-8.24 -0.91, -29.38 -3.92, -49.44 -5.43 C-69.51 -6.95, -102.63 -4.95, -120.4 -9.11 C-138.17 -13.28, -140.55 -20.91, -156.08 -30.41 C-171.62 -39.92, -193.78 -57.58, -213.61 -66.15 C-233.44 -74.72, -256.13 -80.17, -275.05 -81.83 C-293.97 -83.49, -311.24 -75.68, -327.1 -76.09 C-342.97 -76.51, -353.18 -86.45, -370.24 -84.32 C-387.3 -82.2, -430.23 -67.02, -429.49 -63.37 C-428.75 -59.72, -368.91 -69.05, -365.8 -62.41 C-362.69 -55.77, -393.33 -39.27, -410.82 -23.54 C-428.31 -7.8, -460.76 22.76, -470.75 32.02" stroke="#ffffff" stroke-width="4" fill="none"></path></g></g><mask></mask><g stroke-linecap="round"><g transform="translate(706.7382630050706 684.1228986300239) rotate(19.88119980814563 363.4453980324661 -139.77540550752792)"><path d="M0 0 C12.42 4.2, 41.55 19.8, 74.5 25.22 C107.44 30.64, 148.5 43.18, 197.69 32.5 C246.87 21.81, 319.97 3.01, 369.6 -38.88 C419.24 -80.77, 460.05 -179.67, 495.52 -218.84 C530.99 -258.02, 543.86 -258.39, 582.42 -273.92 C620.98 -289.45, 702.81 -305.69, 726.89 -312.05 M0 0 C12.42 4.2, 41.55 19.8, 74.5 25.22 C107.44 30.64, 148.5 43.18, 197.69 32.5 C246.87 21.81, 319.97 3.01, 369.6 -38.88 C419.24 -80.77, 460.05 -179.67, 495.52 -218.84 C530.99 -258.02, 543.86 -258.39, 582.42 -273.92 C620.98 -289.45, 702.81 -305.69, 726.89 -312.05" stroke="#ffffff" stroke-width="4" fill="none"></path></g></g><mask></mask><g stroke-linecap="round"><g transform="translate(632.906398197214 432.3420885307505) rotate(24.69553612692581 -245.90339503082942 159.97809596046432)"><path d="M0 0 C-42.19 48.8, -195.03 219.73, -253.17 292.82 C-311.31 365.91, -327.93 411.42, -348.85 438.54 C-369.76 465.67, -361.8 451.77, -378.66 455.58 C-395.52 459.4, -434.72 462.24, -450 461.44 C-465.28 460.64, -460.13 458.09, -470.36 450.79 C-480.59 443.48, -561.33 482.6, -511.37 417.61 C-461.41 352.62, -259.07 154.04, -170.59 60.86 C-82.1 -32.32, -12.13 -107.76, 19.56 -141.48 M0 0 C-42.19 48.8, -195.03 219.73, -253.17 292.82 C-311.31 365.91, -327.93 411.42, -348.85 438.54 C-369.76 465.67, -361.8 451.77, -378.66 455.58 C-395.52 459.4, -434.72 462.24, -450 461.44 C-465.28 460.64, -460.13 458.09, -470.36 450.79 C-480.59 443.48, -561.33 482.6, -511.37 417.61 C-461.41 352.62, -259.07 154.04, -170.59 60.86 C-82.1 -32.32, -12.13 -107.76, 19.56 -141.48" stroke="#ffffff" stroke-width="4" fill="none"></path></g></g><mask></mask><g stroke-linecap="round"><g transform="translate(606.4492765170362 421.9385420922936) rotate(24.69553612692581 -234.03634560684895 203.02374753168783)"><path d="M0 0 C-12.08 -5.88, -24.16 -11.76, -41.29 -20.09 M0 0 C-9.18 -4.47, -18.37 -8.94, -41.29 -20.09 M-41.29 -20.09 C-200.5 146.37, -359.71 312.83, -468.07 426.14 M-41.29 -20.09 C-131.6 74.33, -221.92 168.76, -468.07 426.14 M-468.07 426.14 C-441.43 425.72, -414.78 425.31, -372.24 424.64 M-468.07 426.14 C-434.89 425.62, -401.71 425.1, -372.24 424.64 M-372.24 424.64 C-288.82 329.48, -205.41 234.33, 0 0 M-372.24 424.64 C-254.83 290.71, -137.43 156.78, 0 0" stroke="#ffffff" stroke-width="4" fill="none"></path></g></g><mask></mask><g stroke-linecap="round" transform="translate(1208.1872976868926 383.87141513786264) rotate(0 28.091211015295812 28.09121101529604)"><path d="M56.18 28.09 C56.18 29.72, 56.04 31.37, 55.76 32.97 C55.47 34.57, 55.04 36.17, 54.49 37.7 C53.93 39.23, 53.23 40.73, 52.42 42.14 C51.61 43.54, 50.66 44.9, 49.61 46.15 C48.57 47.39, 47.39 48.57, 46.15 49.61 C44.9 50.66, 43.54 51.61, 42.14 52.42 C40.73 53.23, 39.23 53.93, 37.7 54.49 C36.17 55.04, 34.57 55.47, 32.97 55.76 C31.37 56.04, 29.72 56.18, 28.09 56.18 C26.47 56.18, 24.81 56.04, 23.21 55.76 C21.61 55.47, 20.01 55.04, 18.48 54.49 C16.96 53.93, 15.45 53.23, 14.05 52.42 C12.64 51.61, 11.28 50.66, 10.03 49.61 C8.79 48.57, 7.62 47.39, 6.57 46.15 C5.53 44.9, 4.58 43.54, 3.76 42.14 C2.95 40.73, 2.25 39.23, 1.69 37.7 C1.14 36.17, 0.71 34.57, 0.43 32.97 C0.14 31.37, 0 29.72, 0 28.09 C0 26.47, 0.14 24.81, 0.43 23.21 C0.71 21.61, 1.14 20.01, 1.69 18.48 C2.25 16.96, 2.95 15.45, 3.76 14.05 C4.58 12.64, 5.53 11.28, 6.57 10.03 C7.62 8.79, 8.79 7.62, 10.03 6.57 C11.28 5.53, 12.64 4.58, 14.05 3.76 C15.45 2.95, 16.96 2.25, 18.48 1.69 C20.01 1.14, 21.61 0.71, 23.21 0.43 C24.81 0.14, 26.47 0, 28.09 0 C29.72 0, 31.37 0.14, 32.97 0.43 C34.57 0.71, 36.17 1.14, 37.7 1.69 C39.23 2.25, 40.73 2.95, 42.14 3.76 C43.54 4.58, 44.9 5.53, 46.15 6.57 C47.39 7.62, 48.57 8.79, 49.61 10.03 C50.66 11.28, 51.61 12.64, 52.42 14.05 C53.23 15.45, 53.93 16.96, 54.49 18.48 C55.04 20.01, 55.47 21.61, 55.76 23.21 C56.04 24.81, 56.11 27.28, 56.18 28.09 C56.25 28.9, 56.25 27.28, 56.18 28.09" stroke="none" stroke-width="0" fill="#ffffff"></path><path d="M56.18 28.09 C56.18 29.72, 56.04 31.37, 55.76 32.97 C55.47 34.57, 55.04 36.17, 54.49 37.7 C53.93 39.23, 53.23 40.73, 52.42 42.14 C51.61 43.54, 50.66 44.9, 49.61 46.15 C48.57 47.39, 47.39 48.57, 46.15 49.61 C44.9 50.66, 43.54 51.61, 42.14 52.42 C40.73 53.23, 39.23 53.93, 37.7 54.49 C36.17 55.04, 34.57 55.47, 32.97 55.76 C31.37 56.04, 29.72 56.18, 28.09 56.18 C26.47 56.18, 24.81 56.04, 23.21 55.76 C21.61 55.47, 20.01 55.04, 18.48 54.49 C16.96 53.93, 15.45 53.23, 14.05 52.42 C12.64 51.61, 11.28 50.66, 10.03 49.61 C8.79 48.57, 7.62 47.39, 6.57 46.15 C5.53 44.9, 4.58 43.54, 3.76 42.14 C2.95 40.73, 2.25 39.23, 1.69 37.7 C1.14 36.17, 0.71 34.57, 0.43 32.97 C0.14 31.37, 0 29.72, 0 28.09 C0 26.47, 0.14 24.81, 0.43 23.21 C0.71 21.61, 1.14 20.01, 1.69 18.48 C2.25 16.96, 2.95 15.45, 3.76 14.05 C4.58 12.64, 5.53 11.28, 6.57 10.03 C7.62 8.79, 8.79 7.62, 10.03 6.57 C11.28 5.53, 12.64 4.58, 14.05 3.76 C15.45 2.95, 16.96 2.25, 18.48 1.69 C20.01 1.14, 21.61 0.71, 23.21 0.43 C24.81 0.14, 26.47 0, 28.09 0 C29.72 0, 31.37 0.14, 32.97 0.43 C34.57 0.71, 36.17 1.14, 37.7 1.69 C39.23 2.25, 40.73 2.95, 42.14 3.76 C43.54 4.58, 44.9 5.53, 46.15 6.57 C47.39 7.62, 48.57 8.79, 49.61 10.03 C50.66 11.28, 51.61 12.64, 52.42 14.05 C53.23 15.45, 53.93 16.96, 54.49 18.48 C55.04 20.01, 55.47 21.61, 55.76 23.21 C56.04 24.81, 56.11 27.28, 56.18 28.09 C56.25 28.9, 56.25 27.28, 56.18 28.09" stroke="#ffffff" stroke-width="4" fill="none"></path></g><g stroke-linecap="round"><g transform="translate(757.1349966891576 390.3740014920186) rotate(67.7295076183435 9.932804709455922 -176.70797494960993)"><path d="M0 0 C10.48 -3.13, 38.93 -9.17, 62.91 -18.79 C86.88 -28.4, 122.31 -43.82, 143.84 -57.7 C165.37 -71.57, 176.39 -82.08, 192.09 -102.05 C207.78 -122.03, 227.64 -149.92, 238 -177.54 C248.35 -205.15, 254.3 -240.8, 254.22 -267.76 C254.14 -294.72, 249.76 -322.72, 237.52 -339.31 C225.27 -355.9, 204.43 -373.15, 180.76 -367.31 C157.08 -361.48, 134.39 -338.13, 95.47 -304.28 C56.55 -270.44, 2.22 -217.25, -52.75 -164.22 C-107.72 -111.19, -204.09 -15.79, -234.36 13.9 M0 0 C10.48 -3.13, 38.93 -9.17, 62.91 -18.79 C86.88 -28.4, 122.31 -43.82, 143.84 -57.7 C165.37 -71.57, 176.39 -82.08, 192.09 -102.05 C207.78 -122.03, 227.64 -149.92, 238 -177.54 C248.35 -205.15, 254.3 -240.8, 254.22 -267.76 C254.14 -294.72, 249.76 -322.72, 237.52 -339.31 C225.27 -355.9, 204.43 -373.15, 180.76 -367.31 C157.08 -361.48, 134.39 -338.13, 95.47 -304.28 C56.55 -270.44, 2.22 -217.25, -52.75 -164.22 C-107.72 -111.19, -204.09 -15.79, -234.36 13.9" stroke="#ffffff" stroke-width="4" fill="none"></path></g></g><mask></mask><g stroke-linecap="round"><g transform="translate(538.2927097678839 337.6032254500551) rotate(67.7295076183435 154.41379985961612 -122.11239406488176)"><path d="M0 0 C86.94 -83.48, 173.89 -166.96, 254.35 -244.22 M0 0 C87.08 -83.61, 174.15 -167.22, 254.35 -244.22 M254.35 -244.22 C259.21 -240.1, 264.06 -235.98, 269.92 -231 M254.35 -244.22 C258.28 -240.89, 262.21 -237.55, 269.92 -231 M269.92 -231 C184.87 -146.54, 99.82 -62.09, 47.36 -9.99 M269.92 -231 C204.65 -166.18, 139.38 -101.37, 47.36 -9.99 M47.36 -9.99 C69.74 -9.99, 92.12 -9.99, 108.06 -9.99 M47.36 -9.99 C68.47 -9.99, 89.59 -9.99, 108.06 -9.99 M108.06 -9.99 C185.46 -79.3, 262.87 -148.6, 308.83 -189.75 M108.06 -9.99 C167.96 -63.63, 227.87 -117.27, 308.83 -189.75" stroke="#ffffff" stroke-width="4" fill="none"></path></g></g><mask></mask><g stroke-linecap="round"><g transform="translate(771.9524663119373 220.9000163499204) rotate(67.7295076183435 -62.573752216056164 87.84270116941912)"><path d="M0 0 C2.33 3.05, 16.42 8.65, 14 18.31 C11.57 27.97, 11 31.74, -14.53 57.97 C-40.05 84.2, -118.37 156.07, -139.14 175.69 M0 0 C2.33 3.05, 16.42 8.65, 14 18.31 C11.57 27.97, 11 31.74, -14.53 57.97 C-40.05 84.2, -118.37 156.07, -139.14 175.69" stroke="#ffffff" stroke-width="4" fill="none"></path></g></g><mask></mask><g stroke-linecap="round"><g transform="translate(590.2625806053184 67.94993915352279) rotate(0 93.22588757799076 53.26225825923757)"><path d="M0 0 C55.08 27.41, 354.51 174.12, 330.51 164.46 C306.5 154.8, -64.96 -20.87, -144.05 -57.94 M0 0 C55.08 27.41, 354.51 174.12, 330.51 164.46 C306.5 154.8, -64.96 -20.87, -144.05 -57.94" stroke="#ffffff" stroke-width="4" fill="none"></path></g></g><mask></mask><g stroke-linecap="round"><g transform="translate(758.6965744379049 432.5435390275752) rotate(0 -156.27953194105703 -211.2717695137876)"><path d="M0 0 C-16.94 -9.81, -71.12 -31.05, -101.64 -58.89 C-132.16 -86.72, -156.17 -123.57, -183.11 -167 C-210.04 -210.42, -241.68 -276.84, -263.26 -319.43 C-284.83 -362.02, -304.34 -405.36, -312.56 -422.54 M0 0 C-16.94 -9.81, -71.12 -31.05, -101.64 -58.89 C-132.16 -86.72, -156.17 -123.57, -183.11 -167 C-210.04 -210.42, -241.68 -276.84, -263.26 -319.43 C-284.83 -362.02, -304.34 -405.36, -312.56 -422.54" stroke="#ffffff" stroke-width="4" fill="none"></path></g></g><mask></mask><g stroke-linecap="round"><g transform="translate(1036.6061415775112 344.6816778630955) rotate(7.0982277529692 -261.95593251586433 -148.89850685386818)"><path d="M0 0 C0.12 -12.62, 22.13 -50.58, 0.74 -75.72 C-20.64 -100.86, -40.73 -113.83, -128.3 -150.85 C-215.87 -187.86, -458.6 -273.31, -524.66 -297.8 M0 0 C0.12 -12.62, 22.13 -50.58, 0.74 -75.72 C-20.64 -100.86, -40.73 -113.83, -128.3 -150.85 C-215.87 -187.86, -458.6 -273.31, -524.66 -297.8" stroke="#ffffff" stroke-width="4" fill="none"></path></g></g><mask></mask><g stroke-linecap="round"><g transform="translate(532.5804483853717 15.446102911486378) rotate(0 28.571469777251878 26.09895627622882)"><path d="M0 0 C9.52 8.7, 47.62 43.5, 57.14 52.2 M0 0 C9.52 8.7, 47.62 43.5, 57.14 52.2" stroke="#ffffff" stroke-width="4" fill="none"></path></g></g><mask></mask><g stroke-linecap="round"><g transform="translate(1331.695308647577 447.1317922414146) rotate(0 -335.86138761431357 -27.559368549442752)"><path d="M0 0 C-10.26 -12.08, -38.06 -55.37, -61.54 -72.48 C-85.02 -89.6, -114.9 -100.19, -140.9 -102.67 C-166.9 -105.15, -172.85 -101.14, -217.56 -87.36 C-262.28 -73.58, -353.21 -34.18, -409.21 -20.02 C-465.21 -5.85, -509.79 -13.62, -553.54 -2.36 C-597.29 8.91, -652.03 39.24, -671.72 47.55 M0 0 C-10.26 -12.08, -38.06 -55.37, -61.54 -72.48 C-85.02 -89.6, -114.9 -100.19, -140.9 -102.67 C-166.9 -105.15, -172.85 -101.14, -217.56 -87.36 C-262.28 -73.58, -353.21 -34.18, -409.21 -20.02 C-465.21 -5.85, -509.79 -13.62, -553.54 -2.36 C-597.29 8.91, -652.03 39.24, -671.72 47.55" stroke="#ffffff" stroke-width="4" fill="none"></path></g></g><mask></mask><g stroke-linecap="round"><g transform="translate(1331.3694940367204 447.794342015849) rotate(0 -5.1868702725532785 13.948953880485078)"><path d="M0 0 C-1.2 1.94, -5.45 7, -7.18 11.65 C-8.9 16.3, -9.84 25.19, -10.37 27.9 M0 0 C-1.2 1.94, -5.45 7, -7.18 11.65 C-8.9 16.3, -9.84 25.19, -10.37 27.9" stroke="#ffffff" stroke-width="4" fill="none"></path></g></g><mask></mask><g stroke-linecap="round"><g transform="translate(1320.361748896561 475.8158336777151) rotate(0 -330.53899017902404 81.74627056930376)"><path d="M0 0 C-16.16 3.15, -54.33 -3.55, -96.94 18.89 C-139.55 41.33, -212.27 110.53, -255.64 134.63 C-299.02 158.73, -318.1 160.73, -357.18 163.49 C-396.25 166.25, -450.52 163.03, -490.1 151.19 C-529.67 139.36, -566.14 114.53, -594.63 92.48 C-623.13 70.43, -650 31.14, -661.08 18.88 M0 0 C-16.16 3.15, -54.33 -3.55, -96.94 18.89 C-139.55 41.33, -212.27 110.53, -255.64 134.63 C-299.02 158.73, -318.1 160.73, -357.18 163.49 C-396.25 166.25, -450.52 163.03, -490.1 151.19 C-529.67 139.36, -566.14 114.53, -594.63 92.48 C-623.13 70.43, -650 31.14, -661.08 18.88" stroke="#ffffff" stroke-width="4" fill="none"></path></g></g><mask></mask><g stroke-linecap="round"><g transform="translate(497.8413362948122 59.896908761447776) rotate(0 11.821245493459173 29.476256554536576)"><path d="M0 0 C3.94 9.83, 19.7 49.13, 23.64 58.95 M0 0 C3.94 9.83, 19.7 49.13, 23.64 58.95" stroke="#ffffff" stroke-width="4" fill="none"></path></g></g><mask></mask><g stroke-linecap="round" transform="translate(716.8882264244676 589.7856037998854) rotate(28.288190769087983 8.798222036552033 32.92345238396956)"><path d="M0 0 L17.6 0 L17.6 65.85 L0 65.85" stroke="none" stroke-width="0" fill="#ffffff"></path><path d="M0 0 C5.75 0, 11.49 0, 17.6 0 M0 0 C6.25 0, 12.5 0, 17.6 0 M17.6 0 C17.6 23.32, 17.6 46.64, 17.6 65.85 M17.6 0 C17.6 16.14, 17.6 32.28, 17.6 65.85 M17.6 65.85 C12.01 65.85, 6.41 65.85, 0 65.85 M17.6 65.85 C11.54 65.85, 5.49 65.85, 0 65.85 M0 65.85 C0 41.23, 0 16.61, 0 0 M0 65.85 C0 40.59, 0 15.33, 0 0" stroke="#ffffff" stroke-width="4" fill="none"></path></g><g stroke-linecap="round" transform="translate(751.1361039095591 642.4540765173215) rotate(338.0200947075301 6.302190632700331 28.604556688498633)"><path d="M0 0 L12.6 0 L12.6 57.21 L0 57.21" stroke="none" stroke-width="0" fill="#ffffff"></path><path d="M0 0 C3.5 0, 7.01 0, 12.6 0 M0 0 C4.36 0, 8.73 0, 12.6 0 M12.6 0 C12.6 12.82, 12.6 25.64, 12.6 57.21 M12.6 0 C12.6 18.04, 12.6 36.09, 12.6 57.21 M12.6 57.21 C7.74 57.21, 2.88 57.21, 0 57.21 M12.6 57.21 C7.58 57.21, 2.55 57.21, 0 57.21 M0 57.21 C0 44.43, 0 31.66, 0 0 M0 57.21 C0 40.67, 0 24.14, 0 0" stroke="#ffffff" stroke-width="4" fill="none"></path></g><g stroke-linecap="round" transform="translate(712.7109048726579 643.8355140211188) rotate(338.0200947075301 6.302190632700331 28.604556688498633)"><path d="M0 0 L12.6 0 L12.6 57.21 L0 57.21" stroke="none" stroke-width="0" fill="#ffffff"></path><path d="M0 0 C4.24 0, 8.48 0, 12.6 0 M0 0 C4.6 0, 9.2 0, 12.6 0 M12.6 0 C12.6 15.76, 12.6 31.51, 12.6 57.21 M12.6 0 C12.6 21.53, 12.6 43.07, 12.6 57.21 M12.6 57.21 C8.93 57.21, 5.27 57.21, 0 57.21 M12.6 57.21 C7.56 57.21, 2.52 57.21, 0 57.21 M0 57.21 C0 44.29, 0 31.37, 0 0 M0 57.21 C0 36.64, 0 16.06, 0 0" stroke="#ffffff" stroke-width="4" fill="none"></path></g><g stroke-linecap="round" transform="translate(747.0718712848593 621.9260307768363) rotate(28.288190769087983 9.057040375629185 15.280228184962425)"><path d="M0 0 L18.11 0 L18.11 30.56 L0 30.56" stroke="none" stroke-width="0" fill="#ffffff"></path><path d="M0 0 C6.76 0, 13.53 0, 18.11 0 M0 0 C5.55 0, 11.09 0, 18.11 0 M18.11 0 C18.11 6.35, 18.11 12.69, 18.11 30.56 M18.11 0 C18.11 11.76, 18.11 23.53, 18.11 30.56 M18.11 30.56 C11.64 30.56, 5.16 30.56, 0 30.56 M18.11 30.56 C14.16 30.56, 10.2 30.56, 0 30.56 M0 30.56 C0 23.65, 0 16.74, 0 0 M0 30.56 C0 20.32, 0 10.08, 0 0" stroke="#ffffff" stroke-width="4" fill="none"></path></g></svg>