<svg version="1.1" xmlns="http://www.w3.org/2000/svg" viewBox="0 0 1117.833333333334 1272.623336665191" width="3353.500000000002" height="3817.8700099955727">
  <!-- svg-source:excalidraw -->
  
  <defs>
    <style class="style-fonts">
      @font-face {
        font-family: "Virgil";
        src: url("https://unpkg.com/@excalidraw/excalidraw@undefined/dist/excalidraw-assets/Virgil.woff2");
      }
      @font-face {
        font-family: "Cascadia";
        src: url("https://unpkg.com/@excalidraw/excalidraw@undefined/dist/excalidraw-assets/Cascadia.woff2");
      }
      @font-face {
        font-family: "Assistant";
        src: url("https://unpkg.com/@excalidraw/excalidraw@undefined/dist/excalidraw-assets/Assistant-Regular.woff2");
      }
    </style>
    
  </defs>
  <g transform="translate(103.17033082633634 1262.623336665191) rotate(0 417.5411122217304 -626.3116683325954)" stroke="none"><path fill="#ffffff" d="M -2.24,-1.45 Q -2.24,-1.45 160.45,-254.09 323.14,-506.73 418.48,-650.58 513.82,-794.43 588.50,-902.93 663.17,-1011.43 712.22,-1081.03 761.27,-1150.64 797.09,-1202.38 832.92,-1254.11 833.21,-1254.42 833.51,-1254.72 833.88,-1254.92 834.26,-1255.12 834.68,-1255.18 835.10,-1255.24 835.52,-1255.17 835.94,-1255.10 836.31,-1254.90 836.69,-1254.69 836.98,-1254.38 837.26,-1254.07 837.44,-1253.68 837.61,-1253.30 837.66,-1252.87 837.70,-1252.45 837.60,-1252.04 837.51,-1251.62 837.29,-1251.26 837.06,-1250.90 836.74,-1250.63 836.41,-1250.36 836.01,-1250.20 835.62,-1250.05 835.19,-1250.03 834.77,-1250.01 834.36,-1250.13 833.95,-1250.24 833.60,-1250.49 833.25,-1250.73 833.00,-1251.07 832.75,-1251.41 832.61,-1251.81 832.48,-1252.22 832.49,-1252.64 832.49,-1253.07 832.63,-1253.47 832.77,-1253.87 833.03,-1254.21 833.29,-1254.54 833.64,-1254.78 834.00,-1255.01 834.41,-1255.12 834.82,-1255.23 835.24,-1255.21 835.67,-1255.18 836.06,-1255.02 836.45,-1254.86 836.77,-1254.58 837.10,-1254.30 837.31,-1253.93 837.53,-1253.57 837.61,-1253.15 837.70,-1252.74 837.65,-1252.31 837.60,-1251.89 837.42,-1251.51 837.24,-1251.12 837.24,-1251.12 837.24,-1251.12 801.47,-1199.35 765.71,-1147.57 717.91,-1077.13 670.10,-1006.69 596.26,-897.71 522.41,-788.74 427.02,-644.98 331.63,-501.22 166.93,-249.88 2.24,1.45 2.03,1.70 1.82,1.94 1.56,2.13 1.30,2.32 1.00,2.45 0.71,2.57 0.39,2.62 0.07,2.67 -0.24,2.64 -0.56,2.61 -0.87,2.50 -1.17,2.39 -1.44,2.22 -1.71,2.04 -1.93,1.81 -2.15,1.57 -2.31,1.29 -2.47,1.01 -2.55,0.70 -2.64,0.39 -2.65,0.07 -2.65,-0.24 -2.59,-0.56 -2.52,-0.87 -2.38,-1.16 -2.23,-1.45 -2.24,-1.45 L -2.24,-1.45 Z"></path></g><g transform="translate(10 444.79487718957046) rotate(0 348.5260523503698 329.54691088574583)" stroke="none"><path fill="#ffffff" d="M -0.21,-2.62 Q -0.21,-2.62 74.11,-9.74 148.43,-16.87 201.47,-10.76 254.52,-4.65 309.58,22.85 364.65,50.37 394.99,71.22 425.33,92.07 472.65,160.05 519.97,228.03 557.90,305.63 595.83,383.23 622.42,449.14 649.02,515.06 663.22,560.37 677.43,605.69 683.75,626.81 690.07,647.92 694.81,663.47 699.55,679.01 699.61,679.43 699.67,679.85 699.59,680.27 699.52,680.69 699.31,681.06 699.10,681.43 698.79,681.72 698.47,682.00 698.08,682.17 697.69,682.34 697.27,682.38 696.84,682.41 696.43,682.31 696.02,682.21 695.66,681.98 695.30,681.76 695.03,681.43 694.77,681.10 694.62,680.70 694.47,680.30 694.46,679.87 694.44,679.45 694.57,679.04 694.69,678.64 694.94,678.29 695.18,677.94 695.53,677.69 695.87,677.45 696.28,677.32 696.68,677.19 697.11,677.20 697.53,677.21 697.93,677.36 698.33,677.50 698.66,677.77 699.00,678.03 699.23,678.39 699.46,678.75 699.56,679.16 699.66,679.57 699.63,679.99 699.60,680.42 699.43,680.81 699.27,681.20 698.98,681.52 698.70,681.83 698.33,682.04 697.96,682.26 697.55,682.34 697.13,682.42 696.71,682.36 696.29,682.31 695.90,682.12 695.52,681.93 695.22,681.63 694.92,681.33 694.73,680.95 694.54,680.57 694.54,680.57 694.54,680.58 689.61,665.09 684.68,649.60 677.91,628.73 671.14,607.86 654.56,563.72 637.97,519.59 610.78,454.39 583.59,389.19 546.32,312.36 509.06,235.53 463.49,168.91 417.93,102.29 388.45,81.89 358.96,61.50 305.95,33.97 252.93,6.43 201.06,-0.25 149.19,-6.93 74.70,-2.15 0.21,2.62 -0.10,2.61 -0.42,2.59 -0.72,2.51 -1.03,2.42 -1.30,2.26 -1.58,2.10 -1.81,1.88 -2.04,1.66 -2.21,1.39 -2.38,1.12 -2.48,0.82 -2.58,0.52 -2.60,0.20 -2.63,-0.10 -2.58,-0.42 -2.52,-0.73 -2.40,-1.02 -2.28,-1.31 -2.08,-1.57 -1.89,-1.82 -1.65,-2.02 -1.40,-2.22 -1.11,-2.36 -0.83,-2.49 -0.52,-2.56 -0.20,-2.62 -0.20,-2.62 L -0.21,-2.62 Z"></path></g><g transform="translate(515 1207.623336665191) rotate(0 25.833333333333485 -82.5)" stroke="none"><path fill="#ffffff" d="M -2.48,-1.04 Q -2.48,-1.04 3.74,-19.85 9.97,-38.66 16.01,-57.20 22.05,-75.74 27.91,-92.23 33.77,-108.71 37.65,-120.72 41.54,-132.73 43.63,-139.37 45.72,-146.01 46.78,-151.47 47.84,-156.92 48.45,-161.14 49.06,-165.36 49.19,-165.76 49.31,-166.17 49.56,-166.51 49.81,-166.86 50.16,-167.11 50.50,-167.35 50.91,-167.48 51.32,-167.60 51.74,-167.59 52.17,-167.57 52.56,-167.43 52.96,-167.28 53.29,-167.01 53.62,-166.74 53.85,-166.38 54.08,-166.02 54.18,-165.61 54.28,-165.20 54.24,-164.78 54.21,-164.35 54.04,-163.96 53.87,-163.57 53.59,-163.26 53.30,-162.94 52.93,-162.73 52.56,-162.53 52.14,-162.45 51.72,-162.37 51.30,-162.43 50.88,-162.49 50.50,-162.68 50.12,-162.87 49.82,-163.17 49.52,-163.47 49.34,-163.85 49.15,-164.23 49.09,-164.65 49.04,-165.08 49.12,-165.49 49.20,-165.91 49.41,-166.28 49.62,-166.65 49.94,-166.93 50.25,-167.21 50.65,-167.38 51.04,-167.55 51.46,-167.58 51.88,-167.61 52.30,-167.51 52.71,-167.40 53.07,-167.17 53.42,-166.94 53.69,-166.61 53.95,-166.28 54.10,-165.88 54.24,-165.48 54.25,-165.06 54.26,-164.63 54.26,-164.63 54.26,-164.63 53.70,-160.41 53.13,-156.18 52.59,-150.21 52.06,-144.24 50.39,-137.53 48.73,-130.82 46.04,-118.18 43.35,-105.54 38.25,-88.83 33.14,-72.12 26.91,-53.14 20.68,-34.16 11.58,-16.55 2.48,1.04 2.32,1.33 2.16,1.61 1.94,1.84 1.71,2.08 1.44,2.26 1.16,2.43 0.85,2.53 0.55,2.64 0.22,2.67 -0.09,2.69 -0.41,2.64 -0.74,2.59 -1.04,2.47 -1.34,2.34 -1.60,2.15 -1.86,1.95 -2.06,1.70 -2.27,1.45 -2.41,1.15 -2.55,0.86 -2.62,0.54 -2.69,0.22 -2.67,-0.09 -2.66,-0.42 -2.57,-0.73 -2.48,-1.04 -2.48,-1.04 L -2.48,-1.04 Z"></path></g><g transform="translate(461.66666666666697 1140.9566699985241) rotate(0 85 -69.16666666666669)" stroke="none"><path fill="#ffffff" d="M -1.67,-2.20 Q -1.67,-2.20 14.85,-17.21 31.38,-32.21 46.50,-44.15 61.62,-56.09 78.61,-70.52 95.59,-84.95 109.45,-96.40 123.31,-107.85 136.58,-116.90 149.86,-125.94 159.11,-133.16 168.36,-140.38 168.73,-140.59 169.10,-140.80 169.52,-140.88 169.94,-140.95 170.36,-140.89 170.78,-140.84 171.16,-140.64 171.54,-140.45 171.84,-140.15 172.14,-139.85 172.32,-139.47 172.51,-139.09 172.57,-138.66 172.62,-138.24 172.54,-137.83 172.46,-137.41 172.24,-137.04 172.03,-136.67 171.72,-136.39 171.40,-136.11 171.01,-135.94 170.62,-135.78 170.19,-135.74 169.77,-135.71 169.36,-135.82 168.94,-135.92 168.59,-136.15 168.23,-136.38 167.97,-136.72 167.70,-137.05 167.56,-137.45 167.41,-137.85 167.40,-138.27 167.39,-138.70 167.52,-139.10 167.65,-139.51 167.90,-139.85 168.15,-140.20 168.49,-140.44 168.84,-140.69 169.25,-140.81 169.65,-140.93 170.08,-140.92 170.50,-140.91 170.90,-140.76 171.30,-140.61 171.63,-140.34 171.96,-140.07 172.19,-139.71 172.41,-139.35 172.51,-138.94 172.61,-138.53 172.58,-138.10 172.54,-137.68 172.37,-137.29 172.20,-136.90 171.91,-136.59 171.63,-136.27 171.63,-136.27 171.63,-136.27 162.51,-128.88 153.39,-121.50 141.82,-110.78 130.24,-100.06 117.18,-87.55 104.13,-75.05 87.11,-60.17 70.09,-45.29 54.81,-33.37 39.53,-21.44 20.60,-9.62 1.67,2.20 1.38,2.37 1.09,2.54 0.77,2.63 0.45,2.73 0.11,2.74 -0.21,2.75 -0.54,2.69 -0.86,2.62 -1.16,2.48 -1.47,2.34 -1.73,2.13 -1.98,1.92 -2.19,1.65 -2.39,1.39 -2.52,1.08 -2.65,0.77 -2.71,0.44 -2.76,0.12 -2.73,-0.21 -2.71,-0.54 -2.60,-0.86 -2.50,-1.17 -2.32,-1.46 -2.14,-1.74 -1.90,-1.97 -1.66,-2.20 -1.66,-2.20 L -1.67,-2.20 Z"></path></g><g transform="translate(523.3333333333335 1130.9566699985241) rotate(0 21.666666666666742 -11.666666666666686)" stroke="none"><path fill="#ffffff" d="M -0.80,-2.58 Q -0.80,-2.58 6.35,-6.51 13.52,-10.45 18.71,-13.29 23.91,-16.12 28.00,-18.24 32.09,-20.35 35.03,-21.74 37.96,-23.13 39.92,-24.33 41.88,-25.52 42.27,-25.70 42.66,-25.87 43.08,-25.91 43.51,-25.95 43.92,-25.85 44.33,-25.76 44.69,-25.53 45.06,-25.31 45.33,-24.98 45.60,-24.65 45.75,-24.26 45.90,-23.86 45.92,-23.43 45.94,-23.01 45.82,-22.60 45.70,-22.19 45.45,-21.85 45.21,-21.50 44.87,-21.24 44.53,-20.99 44.12,-20.86 43.72,-20.73 43.29,-20.74 42.87,-20.74 42.47,-20.88 42.07,-21.02 41.73,-21.29 41.40,-21.55 41.16,-21.90 40.93,-22.26 40.82,-22.67 40.71,-23.08 40.74,-23.50 40.77,-23.93 40.93,-24.32 41.10,-24.71 41.38,-25.03 41.65,-25.35 42.02,-25.57 42.39,-25.78 42.81,-25.87 43.22,-25.95 43.64,-25.90 44.07,-25.85 44.45,-25.67 44.83,-25.48 45.14,-25.19 45.44,-24.89 45.63,-24.51 45.83,-24.13 45.89,-23.71 45.95,-23.29 45.88,-22.87 45.81,-22.46 45.60,-22.08 45.40,-21.71 45.09,-21.42 44.77,-21.13 44.77,-21.13 44.77,-21.13 42.90,-19.81 41.03,-18.48 38.79,-16.45 36.55,-14.43 32.95,-10.77 29.36,-7.11 23.25,-3.12 17.14,0.86 8.97,1.72 0.80,2.58 0.48,2.64 0.16,2.70 -0.16,2.68 -0.48,2.66 -0.79,2.56 -1.10,2.47 -1.38,2.30 -1.66,2.13 -1.89,1.90 -2.13,1.67 -2.29,1.39 -2.46,1.11 -2.56,0.80 -2.66,0.49 -2.68,0.16 -2.70,-0.16 -2.64,-0.48 -2.58,-0.80 -2.45,-1.10 -2.31,-1.39 -2.11,-1.65 -1.91,-1.91 -1.65,-2.11 -1.40,-2.31 -1.10,-2.45 -0.80,-2.58 -0.80,-2.58 L -0.80,-2.58 Z"></path></g><g transform="translate(586.666666666667 1130.9566699985241) rotate(0 17.5 25.833333333333314)" stroke="none"><path fill="#ffffff" d="M 2.26,1.41 Q 2.26,1.41 1.27,6.12 0.29,10.83 -1.96,15.94 -4.21,21.04 -5.57,26.27 -6.92,31.50 -7.54,34.12 -8.15,36.73 -6.33,40.15 -4.50,43.56 -1.16,43.57 2.17,43.58 5.80,37.60 9.43,31.61 11.03,26.91 12.62,22.20 14.35,17.13 16.08,12.05 16.81,8.91 17.54,5.78 17.89,5.05 18.25,4.32 18.76,3.70 19.28,3.08 19.93,2.59 20.58,2.11 21.33,1.80 22.08,1.49 22.88,1.36 23.68,1.24 24.48,1.31 25.29,1.38 26.06,1.64 26.82,1.90 27.50,2.34 28.18,2.78 28.74,3.37 29.30,3.96 29.70,4.66 30.10,5.36 30.32,6.14 30.54,6.92 30.56,7.73 30.59,8.54 30.42,9.33 30.26,10.13 30.63,13.00 31.01,15.87 31.67,20.59 32.34,25.31 33.86,28.95 35.38,32.59 37.58,35.02 39.78,37.46 41.96,39.36 44.14,41.27 45.81,41.89 47.48,42.51 47.79,42.44 48.10,42.38 48.41,42.39 48.73,42.40 49.04,42.49 49.34,42.57 49.62,42.73 49.89,42.88 50.12,43.10 50.35,43.32 50.52,43.59 50.69,43.85 50.80,44.15 50.90,44.45 50.93,44.77 50.95,45.08 50.90,45.40 50.86,45.71 50.73,46.00 50.61,46.29 50.42,46.55 50.24,46.80 49.99,47.00 49.75,47.21 49.46,47.34 49.18,47.48 47.48,46.58 45.79,45.67 45.75,45.25 45.71,44.83 45.80,44.41 45.90,44.00 46.12,43.64 46.34,43.27 46.67,43.00 47.00,42.73 47.39,42.58 47.79,42.42 48.21,42.41 48.64,42.39 49.05,42.50 49.46,42.62 49.80,42.86 50.15,43.11 50.41,43.45 50.66,43.79 50.79,44.19 50.92,44.60 50.92,45.02 50.92,45.45 50.78,45.85 50.64,46.25 50.38,46.58 50.11,46.92 49.76,47.16 49.41,47.39 49.00,47.50 48.59,47.61 48.16,47.58 47.74,47.55 47.34,47.39 46.95,47.23 46.63,46.95 46.31,46.67 46.09,46.31 45.88,45.94 45.79,45.53 45.70,45.11 45.75,44.69 45.80,44.27 45.99,43.88 46.17,43.50 46.47,43.19 46.76,42.89 47.14,42.69 47.52,42.50 47.94,42.43 48.36,42.37 48.77,42.44 49.19,42.51 49.57,42.72 49.94,42.92 50.23,43.23 50.52,43.54 49.00,43.03 47.48,42.51 47.79,42.44 48.10,42.38 48.41,42.39 48.73,42.40 49.04,42.49 49.34,42.57 49.62,42.73 49.89,42.88 50.12,43.10 50.35,43.32 50.52,43.59 50.69,43.85 50.80,44.15 50.90,44.45 50.93,44.77 50.95,45.08 50.90,45.39 50.86,45.71 50.73,46.00 50.61,46.29 50.42,46.55 50.24,46.80 49.99,47.00 49.75,47.21 49.46,47.34 49.18,47.48 49.67,50.50 50.16,53.52 46.66,54.32 43.15,55.12 39.05,53.42 34.94,51.72 31.99,48.89 29.04,46.07 25.95,41.87 22.85,37.67 20.93,32.47 19.00,27.28 18.33,22.48 17.65,17.69 17.60,11.74 17.54,5.78 17.89,5.05 18.25,4.32 18.76,3.70 19.28,3.08 19.93,2.59 20.58,2.11 21.33,1.80 22.07,1.49 22.87,1.36 23.68,1.24 24.48,1.31 25.29,1.38 26.06,1.64 26.82,1.90 27.50,2.34 28.18,2.78 28.74,3.37 29.30,3.96 29.70,4.66 30.10,5.36 30.32,6.14 30.54,6.92 30.56,7.73 30.59,8.54 30.42,9.33 30.26,10.13 29.50,13.25 28.75,16.37 26.99,21.51 25.22,26.65 23.12,32.45 21.01,38.25 16.74,44.87 12.48,51.48 7.72,53.84 2.97,56.20 -1.12,55.90 -5.22,55.60 -9.57,53.17 -13.93,50.74 -16.24,46.68 -18.54,42.62 -19.23,38.66 -19.93,34.71 -19.25,31.54 -18.56,28.38 -16.87,22.26 -15.18,16.13 -12.53,10.31 -9.87,4.49 -6.07,1.54 -2.26,-1.41 -2.06,-1.66 -1.86,-1.91 -1.60,-2.11 -1.34,-2.30 -1.05,-2.43 -0.75,-2.56 -0.43,-2.61 -0.12,-2.66 0.19,-2.64 0.52,-2.62 0.82,-2.51 1.13,-2.41 1.40,-2.24 1.67,-2.07 1.90,-1.84 2.12,-1.61 2.28,-1.33 2.45,-1.05 2.54,-0.75 2.63,-0.44 2.64,-0.12 2.66,0.20 2.60,0.51 2.53,0.83 2.40,1.12 2.26,1.41 2.26,1.41 L 2.26,1.41 Z"></path></g><g transform="translate(651.666666666667 1172.623336665191) rotate(0 -5.000000000000455 -38.333333333333314)" stroke="none"><path fill="#ffffff" d="M -2.73,-0.17 Q -2.73,-0.17 -4.27,-7.94 -5.82,-15.72 -7.06,-23.56 -8.30,-31.40 -10.20,-40.05 -12.10,-48.71 -13.30,-54.93 -14.49,-61.16 -15.05,-65.24 -15.62,-69.32 -14.12,-72.20 -12.62,-75.08 -12.54,-75.49 -12.46,-75.91 -12.25,-76.28 -12.04,-76.65 -11.72,-76.93 -11.40,-77.21 -11.01,-77.38 -10.62,-77.55 -10.20,-77.58 -9.77,-77.61 -9.36,-77.51 -8.95,-77.40 -8.59,-77.17 -8.23,-76.94 -7.97,-76.61 -7.70,-76.28 -7.56,-75.88 -7.41,-75.48 -7.40,-75.06 -7.39,-74.63 -7.52,-74.22 -7.65,-73.82 -7.90,-73.47 -8.14,-73.13 -8.49,-72.88 -8.84,-72.64 -9.24,-72.51 -9.65,-72.39 -10.08,-72.40 -10.50,-72.42 -10.90,-72.57 -11.30,-72.71 -11.63,-72.98 -11.96,-73.25 -12.18,-73.61 -12.41,-73.97 -12.51,-74.38 -12.61,-74.79 -12.58,-75.22 -12.54,-75.64 -12.37,-76.03 -12.20,-76.42 -11.92,-76.73 -11.63,-77.05 -11.26,-77.26 -10.89,-77.46 -10.47,-77.54 -10.06,-77.62 -9.64,-77.56 -9.21,-77.50 -8.83,-77.31 -8.45,-77.12 -8.15,-76.82 -7.86,-76.52 -7.67,-76.14 -7.48,-75.76 -7.43,-75.33 -7.37,-74.91 -7.37,-74.91 -7.37,-74.91 -6.00,-73.45 -4.64,-71.99 -3.13,-67.95 -1.62,-63.90 -0.18,-57.78 1.24,-51.65 3.26,-42.51 5.28,-33.37 6.51,-24.15 7.74,-14.93 5.23,-7.38 2.73,0.17 2.67,0.49 2.61,0.81 2.47,1.12 2.34,1.42 2.13,1.68 1.93,1.93 1.67,2.14 1.41,2.34 1.11,2.48 0.80,2.61 0.48,2.67 0.15,2.73 -0.16,2.71 -0.49,2.69 -0.81,2.59 -1.12,2.49 -1.41,2.32 -1.69,2.15 -1.92,1.91 -2.15,1.68 -2.32,1.40 -2.49,1.11 -2.59,0.80 -2.69,0.48 -2.71,0.15 -2.73,-0.17 -2.73,-0.17 L -2.73,-0.17 Z"></path></g><g transform="translate(646.666666666667 1144.2900033318574) rotate(0 28.33333333333303 0.8333333333333712)" stroke="none"><path fill="#ffffff" d="M -1.67,-2.23 Q -1.67,-2.23 1.08,-6.53 3.85,-10.83 6.92,-13.14 10.00,-15.44 12.91,-17.48 15.82,-19.52 19.97,-20.34 24.13,-21.15 28.72,-19.61 33.31,-18.07 37.42,-14.53 41.52,-10.99 45.59,-6.03 49.66,-1.06 51.68,1.32 53.69,3.71 55.74,6.24 57.78,8.77 57.72,11.50 57.66,14.23 58.02,14.45 58.38,14.67 58.65,15.00 58.92,15.33 59.08,15.72 59.23,16.12 59.25,16.54 59.27,16.97 59.15,17.38 59.04,17.79 58.79,18.14 58.55,18.48 58.21,18.74 57.87,18.99 57.47,19.13 57.06,19.26 56.64,19.25 56.21,19.25 55.81,19.11 55.41,18.97 55.07,18.71 54.74,18.45 54.50,18.10 54.27,17.74 54.16,17.33 54.05,16.92 54.07,16.50 54.10,16.07 54.26,15.68 54.42,15.29 54.70,14.97 54.98,14.64 55.35,14.43 55.71,14.21 56.13,14.13 56.54,14.04 56.97,14.09 57.39,14.14 57.77,14.32 58.16,14.50 58.46,14.80 58.77,15.09 58.96,15.47 59.16,15.85 59.22,16.27 59.29,16.69 59.22,17.10 59.14,17.52 58.94,17.90 58.74,18.27 58.43,18.56 58.12,18.85 57.73,19.02 57.34,19.20 56.92,19.24 56.50,19.28 56.08,19.19 55.67,19.09 55.67,19.09 55.67,19.09 52.18,18.17 48.69,17.24 46.09,14.82 43.49,12.40 41.36,9.92 39.22,7.44 35.78,3.19 32.34,-1.05 30.04,-3.41 27.74,-5.77 25.24,-7.00 22.74,-8.23 20.16,-6.50 17.59,-4.77 14.53,-2.71 11.48,-0.66 6.57,0.78 1.67,2.23 1.38,2.39 1.09,2.56 0.76,2.66 0.44,2.75 0.10,2.76 -0.22,2.78 -0.55,2.71 -0.88,2.64 -1.18,2.50 -1.49,2.35 -1.75,2.14 -2.01,1.93 -2.21,1.66 -2.41,1.39 -2.54,1.08 -2.68,0.77 -2.73,0.44 -2.78,0.10 -2.76,-0.22 -2.73,-0.56 -2.62,-0.87 -2.51,-1.19 -2.33,-1.48 -2.15,-1.76 -1.91,-1.99 -1.67,-2.23 -1.67,-2.23 L -1.67,-2.23 Z"></path></g><g transform="translate(650 1142.623336665191) rotate(0 14.166666666666515 -21.666666666666686)" stroke="none"><path fill="#ffffff" d="M -2.08,-1.69 Q -2.08,-1.69 2.51,-10.68 7.10,-19.67 10.70,-24.25 14.30,-28.83 17.14,-32.15 19.98,-35.47 22.01,-37.57 24.05,-39.67 24.94,-41.93 25.84,-44.18 26.04,-44.55 26.24,-44.93 26.55,-45.22 26.86,-45.51 27.25,-45.69 27.64,-45.86 28.06,-45.91 28.48,-45.95 28.90,-45.86 29.31,-45.76 29.67,-45.54 30.04,-45.32 30.31,-45.00 30.58,-44.67 30.74,-44.28 30.90,-43.88 30.92,-43.46 30.94,-43.03 30.82,-42.62 30.71,-42.22 30.47,-41.86 30.23,-41.51 29.89,-41.26 29.55,-41.00 29.15,-40.87 28.74,-40.73 28.32,-40.74 27.89,-40.74 27.49,-40.88 27.09,-41.01 26.75,-41.27 26.41,-41.53 26.18,-41.88 25.94,-42.24 25.83,-42.65 25.72,-43.06 25.74,-43.48 25.77,-43.90 25.92,-44.30 26.08,-44.69 26.36,-45.01 26.64,-45.34 27.00,-45.56 27.37,-45.77 27.78,-45.86 28.20,-45.95 28.62,-45.90 29.04,-45.86 29.43,-45.68 29.81,-45.50 30.12,-45.20 30.43,-44.91 30.62,-44.53 30.82,-44.16 30.89,-43.74 30.95,-43.32 30.88,-42.90 30.81,-42.48 30.81,-42.48 30.81,-42.48 30.15,-40.15 29.48,-37.82 29.40,-33.72 29.31,-29.62 27.17,-25.11 25.03,-20.61 21.41,-15.79 17.80,-10.98 9.94,-4.64 2.08,1.69 1.85,1.91 1.61,2.14 1.33,2.30 1.05,2.46 0.74,2.55 0.43,2.65 0.11,2.66 -0.20,2.67 -0.52,2.61 -0.84,2.54 -1.13,2.41 -1.43,2.27 -1.68,2.06 -1.93,1.86 -2.12,1.60 -2.32,1.34 -2.45,1.05 -2.57,0.75 -2.63,0.43 -2.68,0.11 -2.65,-0.20 -2.63,-0.53 -2.53,-0.83 -2.42,-1.14 -2.25,-1.41 -2.08,-1.69 -2.08,-1.69 L -2.08,-1.69 Z"></path></g><g transform="translate(735 1144.2900033318574) rotate(0 -13.333333333333485 -26.66666666666663)" stroke="none"><path fill="#ffffff" d="M -1.93,1.80 Q -1.93,1.80 -9.84,-4.26 -17.74,-10.33 -22.25,-15.95 -26.76,-21.57 -29.46,-27.39 -32.16,-33.20 -33.15,-38.12 -34.14,-43.04 -31.83,-47.70 -29.52,-52.36 -26.71,-54.47 -23.90,-56.57 -19.76,-57.09 -15.62,-57.60 -10.52,-56.10 -5.41,-54.60 -1.16,-51.54 3.08,-48.48 5.36,-43.27 7.64,-38.07 6.05,-33.27 4.47,-28.48 -0.95,-26.90 -6.38,-25.32 -9.30,-25.11 -12.22,-24.89 -14.12,-24.50 -16.02,-24.12 -16.44,-24.08 -16.86,-24.04 -17.28,-24.14 -17.69,-24.24 -18.05,-24.47 -18.41,-24.70 -18.68,-25.03 -18.94,-25.36 -19.09,-25.76 -19.24,-26.16 -19.25,-26.58 -19.27,-27.01 -19.14,-27.41 -19.02,-27.82 -18.77,-28.17 -18.53,-28.51 -18.18,-28.76 -17.84,-29.01 -17.43,-29.14 -17.03,-29.26 -16.60,-29.25 -16.18,-29.24 -15.78,-29.10 -15.38,-28.95 -15.05,-28.69 -14.71,-28.42 -14.48,-28.07 -14.25,-27.71 -14.15,-27.30 -14.04,-26.88 -14.08,-26.46 -14.11,-26.04 -14.28,-25.65 -14.44,-25.26 -14.73,-24.94 -15.01,-24.62 -15.38,-24.41 -15.75,-24.20 -16.16,-24.12 -16.58,-24.04 -17.00,-24.09 -17.42,-24.15 -17.80,-24.34 -18.19,-24.52 -18.49,-24.82 -18.79,-25.12 -18.98,-25.50 -19.17,-25.88 -19.23,-26.30 -19.29,-26.72 -19.21,-27.14 -19.13,-27.56 -18.92,-27.93 -18.72,-28.30 -18.40,-28.58 -18.08,-28.87 -17.69,-29.04 -17.31,-29.21 -17.31,-29.21 -17.31,-29.21 -15.45,-29.77 -13.59,-30.33 -11.43,-31.40 -9.27,-32.47 -7.49,-35.71 -5.70,-38.95 -7.74,-40.92 -9.78,-42.90 -13.93,-44.61 -18.08,-46.33 -20.52,-44.59 -22.96,-42.85 -21.99,-40.48 -21.03,-38.11 -19.12,-33.54 -17.22,-28.97 -13.15,-23.69 -9.08,-18.41 -3.57,-10.11 1.93,-1.80 2.12,-1.54 2.31,-1.29 2.43,-0.99 2.55,-0.70 2.60,-0.38 2.64,-0.06 2.61,0.24 2.58,0.56 2.48,0.86 2.37,1.16 2.20,1.43 2.02,1.70 1.79,1.92 1.56,2.14 1.28,2.29 1.00,2.45 0.69,2.53 0.38,2.62 0.06,2.62 -0.25,2.63 -0.56,2.56 -0.87,2.50 -1.16,2.35 -1.44,2.21 -1.69,2.01 -1.93,1.80 -1.93,1.80 L -1.93,1.80 Z"></path></g><g transform="translate(776.666666666667 1147.623336665191) rotate(0 10 -70)" stroke="none"><path fill="#ffffff" d="M -1.33,-2.44 Q -1.33,-2.44 8.19,-9.60 17.71,-16.77 20.04,-20.99 22.38,-25.21 20.79,-30.13 19.20,-35.04 13.98,-41.02 8.75,-47.00 1.42,-52.98 -5.90,-58.96 -10.04,-62.07 -14.19,-65.19 -18.91,-69.62 -23.64,-74.06 -24.65,-79.85 -25.66,-85.65 -21.50,-91.81 -17.34,-97.98 -10.56,-103.65 -3.79,-109.32 2.15,-114.71 8.10,-120.11 14.62,-124.79 21.13,-129.47 27.93,-132.79 34.73,-136.12 39.10,-139.13 43.48,-142.14 43.86,-142.33 44.25,-142.51 44.67,-142.57 45.09,-142.62 45.50,-142.54 45.92,-142.45 46.29,-142.24 46.66,-142.03 46.94,-141.71 47.22,-141.39 47.38,-141.00 47.55,-140.61 47.58,-140.18 47.61,-139.76 47.51,-139.35 47.40,-138.94 47.17,-138.58 46.94,-138.22 46.60,-137.96 46.27,-137.70 45.87,-137.55 45.47,-137.41 45.04,-137.40 44.62,-137.40 44.21,-137.52 43.81,-137.65 43.46,-137.90 43.12,-138.15 42.88,-138.50 42.63,-138.85 42.51,-139.26 42.39,-139.66 42.40,-140.09 42.42,-140.51 42.57,-140.91 42.72,-141.31 42.99,-141.64 43.26,-141.97 43.62,-142.19 43.98,-142.42 44.39,-142.52 44.80,-142.61 45.23,-142.58 45.65,-142.54 46.04,-142.37 46.43,-142.20 46.74,-141.91 47.06,-141.62 47.26,-141.25 47.47,-140.88 47.54,-140.46 47.62,-140.04 47.56,-139.62 47.50,-139.20 47.31,-138.82 47.11,-138.44 46.81,-138.15 46.51,-137.85 46.51,-137.85 46.51,-137.85 42.20,-134.73 37.90,-131.62 32.95,-126.66 28.00,-121.69 22.66,-115.89 17.32,-110.08 11.15,-104.34 4.99,-98.60 -0.94,-93.85 -6.88,-89.10 -10.40,-85.29 -13.92,-81.49 -10.24,-78.41 -6.55,-75.33 -2.18,-72.04 2.17,-68.74 10.37,-61.90 18.56,-55.05 25.04,-46.65 31.53,-38.25 32.70,-29.61 33.87,-20.97 29.16,-13.60 24.44,-6.22 12.89,-1.89 1.33,2.44 1.02,2.57 0.71,2.69 0.37,2.74 0.04,2.78 -0.28,2.75 -0.62,2.71 -0.94,2.60 -1.25,2.49 -1.53,2.30 -1.81,2.11 -2.04,1.86 -2.27,1.62 -2.43,1.32 -2.59,1.03 -2.67,0.70 -2.76,0.38 -2.76,0.04 -2.77,-0.29 -2.69,-0.61 -2.62,-0.94 -2.47,-1.24 -2.32,-1.54 -2.10,-1.80 -1.88,-2.05 -1.60,-2.25 -1.33,-2.44 -1.33,-2.44 L -1.33,-2.44 Z"></path></g><g transform="translate(830 1125.9566699985241) rotate(0 2.5 -9.166666666666686)" stroke="none"><path fill="#ffffff" d="M -2.54,-0.84 Q -2.54,-0.84 -2.82,-4.13 -3.11,-7.42 -1.42,-9.81 0.25,-12.20 1.33,-15.50 2.41,-18.79 2.55,-19.20 2.69,-19.60 2.96,-19.93 3.22,-20.26 3.57,-20.50 3.93,-20.73 4.34,-20.84 4.75,-20.94 5.18,-20.91 5.60,-20.88 5.99,-20.72 6.39,-20.56 6.70,-20.28 7.02,-20.00 7.24,-19.63 7.45,-19.26 7.54,-18.84 7.62,-18.43 7.57,-18.01 7.51,-17.59 7.33,-17.20 7.15,-16.82 6.85,-16.52 6.55,-16.21 6.17,-16.02 5.79,-15.83 5.37,-15.76 4.95,-15.70 4.53,-15.78 4.12,-15.85 3.74,-16.06 3.37,-16.26 3.08,-16.58 2.80,-16.89 2.63,-17.28 2.45,-17.67 2.41,-18.09 2.37,-18.51 2.47,-18.93 2.57,-19.34 2.80,-19.70 3.02,-20.06 3.35,-20.33 3.68,-20.60 4.07,-20.75 4.47,-20.90 4.90,-20.92 5.32,-20.93 5.73,-20.81 6.14,-20.69 6.48,-20.45 6.83,-20.21 7.08,-19.86 7.34,-19.52 7.46,-19.12 7.59,-18.71 7.59,-18.29 7.58,-17.86 7.58,-17.86 7.58,-17.86 7.39,-16.30 7.20,-14.74 7.16,-12.33 7.12,-9.93 7.03,-7.00 6.94,-4.07 4.74,-1.61 2.54,0.84 2.40,1.13 2.26,1.43 2.06,1.68 1.85,1.93 1.59,2.12 1.34,2.31 1.04,2.44 0.74,2.57 0.42,2.62 0.10,2.67 -0.21,2.65 -0.53,2.62 -0.84,2.52 -1.14,2.42 -1.42,2.24 -1.69,2.07 -1.91,1.84 -2.14,1.61 -2.30,1.33 -2.46,1.05 -2.55,0.74 -2.64,0.43 -2.65,0.10 -2.67,-0.21 -2.60,-0.53 -2.54,-0.84 -2.54,-0.84 L -2.54,-0.84 Z"></path></g><g transform="translate(830 1090.9566699985241) rotate(0 0.8333333333334849 -4.166666666666686)" stroke="none"><path fill="#ffffff" d="M 2.52,-0.78 Q 2.52,-0.78 2.56,-0.15 2.59,0.47 2.33,1.05 2.07,1.62 1.58,2.01 1.08,2.40 0.46,2.52 -0.15,2.63 -0.76,2.44 -1.36,2.26 -1.81,1.81 -2.26,1.36 -2.44,0.76 -2.63,0.15 -2.52,-0.46 -2.40,-1.08 -2.01,-1.58 -1.62,-2.07 -1.05,-2.33 -0.47,-2.59 0.15,-2.56 0.78,-2.52 1.32,-2.19 1.86,-1.86 2.19,-1.32 L 2.52,-0.78 Z"></path></g><g transform="translate(861.666666666667 1112.623336665191) rotate(0 38.33333333333303 10)" stroke="none"><path fill="#ffffff" d="M -1.83,2.09 Q -1.83,2.09 -6.96,0.16 -12.08,-1.77 -14.89,-6.10 -17.69,-10.43 -17.89,-15.75 -18.10,-21.06 -15.00,-25.36 -11.91,-29.65 -6.60,-31.05 -1.30,-32.46 3.69,-31.71 8.69,-30.96 11.49,-29.96 14.28,-28.97 18.75,-25.07 23.22,-21.18 25.84,-16.37 28.45,-11.56 28.61,-5.86 28.77,-0.16 25.25,5.13 21.73,10.43 15.09,11.65 8.46,12.87 1.98,9.65 -4.49,6.42 -9.20,1.15 -13.90,-4.12 -16.81,-8.91 -19.71,-13.70 -20.98,-16.29 -22.25,-18.89 -22.26,-23.36 -22.27,-27.84 -19.49,-30.59 -16.72,-33.35 -11.37,-33.37 -6.02,-33.39 1.56,-29.05 9.15,-24.72 16.25,-17.83 23.34,-10.94 27.56,-6.74 31.77,-2.54 38.05,4.67 44.32,11.90 49.71,17.68 55.10,23.45 61.41,28.47 67.73,33.49 72.98,36.39 78.22,39.28 82.04,40.33 85.86,41.37 84.65,39.53 83.43,37.69 80.07,33.45 76.72,29.20 69.24,22.90 61.76,16.59 48.87,8.44 35.98,0.28 28.63,-3.95 21.28,-8.20 15.85,-11.27 10.41,-14.35 10.08,-14.61 9.74,-14.87 9.50,-15.22 9.27,-15.58 9.16,-15.99 9.05,-16.40 9.07,-16.82 9.10,-17.25 9.26,-17.64 9.42,-18.03 9.70,-18.36 9.98,-18.68 10.34,-18.89 10.71,-19.11 11.13,-19.20 11.54,-19.29 11.96,-19.24 12.39,-19.19 12.77,-19.01 13.15,-18.82 13.46,-18.53 13.77,-18.23 13.96,-17.86 14.16,-17.48 14.22,-17.06 14.29,-16.64 14.22,-16.22 14.14,-15.80 13.94,-15.43 13.74,-15.05 13.43,-14.77 13.12,-14.48 12.73,-14.30 12.34,-14.12 11.92,-14.08 11.50,-14.04 11.08,-14.13 10.67,-14.23 10.31,-14.45 9.94,-14.67 9.67,-15.00 9.40,-15.33 9.25,-15.72 9.09,-16.12 9.07,-16.54 9.05,-16.97 9.17,-17.38 9.29,-17.78 9.53,-18.13 9.77,-18.48 10.11,-18.74 10.45,-18.99 10.85,-19.12 11.26,-19.26 11.68,-19.25 12.11,-19.25 12.51,-19.11 12.91,-18.97 12.91,-18.97 12.91,-18.97 18.46,-16.11 24.01,-13.25 31.52,-9.46 39.02,-5.67 54.33,0.56 69.64,6.79 78.89,14.06 88.14,21.33 92.59,28.72 97.03,36.12 96.65,41.89 96.27,47.67 89.75,51.11 83.22,54.55 77.41,52.83 71.59,51.12 65.45,47.54 59.31,43.95 52.35,38.23 45.39,32.51 39.85,26.54 34.30,20.56 28.37,13.68 22.44,6.80 18.24,2.60 14.03,-1.59 8.09,-7.68 2.14,-13.78 -2.90,-17.45 -7.95,-21.13 -9.51,-22.70 -11.07,-24.27 -10.09,-22.24 -9.11,-20.21 -6.71,-16.38 -4.31,-12.54 -1.05,-8.80 2.20,-5.06 5.44,-2.85 8.68,-0.65 11.85,-1.14 15.01,-1.64 15.48,-3.93 15.95,-6.21 14.79,-8.93 13.63,-11.64 9.94,-14.75 6.24,-17.87 1.20,-18.92 -3.83,-19.98 -4.95,-18.16 -6.06,-16.34 -4.65,-13.99 -3.24,-11.64 -0.70,-6.87 1.83,-2.09 2.06,-1.84 2.28,-1.59 2.44,-1.30 2.60,-1.00 2.68,-0.67 2.76,-0.35 2.76,-0.01 2.77,0.31 2.69,0.64 2.61,0.97 2.46,1.27 2.30,1.57 2.08,1.82 1.86,2.07 1.58,2.26 1.31,2.46 0.99,2.58 0.68,2.70 0.35,2.74 0.01,2.78 -0.31,2.75 -0.65,2.71 -0.96,2.59 -1.28,2.47 -1.55,2.28 -1.83,2.09 -1.83,2.09 L -1.83,2.09 Z"></path></g><g transform="translate(905 1089.2900033318574) rotate(0 14.166666666666515 -15.833333333333314)" stroke="none"><path fill="#ffffff" d="M -2.61,0.78 Q -2.61,0.78 -5.23,-3.65 -7.85,-8.08 -8.53,-10.73 -9.20,-13.37 -10.41,-17.15 -11.62,-20.93 -12.67,-25.15 -13.73,-29.37 -14.57,-32.47 -15.41,-35.57 -15.45,-35.08 -15.48,-34.59 -15.62,-35.26 -15.76,-35.93 -15.73,-36.60 -15.70,-37.28 -15.52,-37.94 -15.33,-38.59 -14.99,-39.18 -14.65,-39.77 -14.18,-40.26 -13.71,-40.75 -13.14,-41.12 -12.56,-41.48 -11.92,-41.70 -11.27,-41.91 -10.60,-41.97 -9.92,-42.03 -9.25,-41.92 -8.58,-41.81 -7.95,-41.54 -7.32,-41.28 -6.78,-40.87 -6.24,-40.46 -5.80,-39.94 -5.37,-39.41 -5.08,-38.80 -4.79,-38.18 -3.73,-34.84 -2.66,-31.50 -1.67,-27.00 -0.68,-22.50 0.63,-17.46 1.94,-12.42 2.99,-8.30 4.04,-4.18 5.84,-1.45 7.63,1.27 7.83,1.98 8.02,2.68 8.05,3.41 8.07,4.14 7.92,4.85 7.76,5.56 7.45,6.22 7.13,6.88 6.66,7.44 6.19,8.00 5.61,8.43 5.02,8.87 4.34,9.15 3.67,9.43 2.95,9.54 2.23,9.65 1.50,9.58 0.77,9.52 0.08,9.28 -0.60,9.04 -1.21,8.65 -1.82,8.25 -2.32,7.72 -2.82,7.19 -3.18,6.55 -3.54,5.92 -2.34,1.88 -1.14,-2.16 -0.87,-4.39 -0.59,-6.63 1.30,-11.72 3.20,-16.82 5.81,-21.40 8.42,-25.98 13.75,-28.83 19.07,-31.68 23.93,-30.48 28.79,-29.28 33.23,-24.03 37.68,-18.79 39.34,-15.45 40.99,-12.12 42.69,-7.04 44.39,-1.96 41.39,4.02 38.38,10.01 35.07,8.82 31.77,7.62 31.35,7.57 30.93,7.52 30.55,7.33 30.16,7.15 29.86,6.86 29.55,6.56 29.36,6.18 29.16,5.80 29.10,5.38 29.04,4.96 29.11,4.55 29.18,4.13 29.39,3.75 29.59,3.38 29.90,3.09 30.21,2.80 30.60,2.63 30.99,2.46 31.41,2.41 31.84,2.37 32.25,2.47 32.66,2.57 33.02,2.79 33.39,3.01 33.66,3.34 33.93,3.67 34.08,4.06 34.23,4.46 34.25,4.89 34.27,5.31 34.15,5.72 34.03,6.13 33.79,6.48 33.55,6.82 33.21,7.08 32.86,7.33 32.46,7.46 32.06,7.59 31.63,7.59 31.21,7.58 30.80,7.44 30.40,7.30 30.07,7.04 29.73,6.78 29.50,6.42 29.26,6.07 29.16,5.66 29.05,5.25 29.08,4.82 29.10,4.40 29.27,4.01 29.43,3.61 29.71,3.29 29.99,2.97 30.35,2.76 30.72,2.54 31.14,2.46 31.55,2.37 31.55,2.37 31.55,2.37 33.71,0.94 35.87,-0.48 33.48,0.68 31.09,1.85 29.74,-2.15 28.40,-6.16 27.40,-8.44 26.40,-10.72 24.58,-14.16 22.76,-17.61 20.58,-18.32 18.40,-19.03 16.61,-15.72 14.82,-12.42 13.13,-7.99 11.44,-3.56 9.53,-1.14 7.63,1.27 7.83,1.98 8.02,2.68 8.05,3.41 8.07,4.14 7.92,4.85 7.76,5.56 7.45,6.22 7.13,6.88 6.66,7.44 6.19,8.00 5.61,8.43 5.02,8.87 4.34,9.15 3.67,9.43 2.95,9.54 2.23,9.65 1.50,9.58 0.77,9.52 0.08,9.28 -0.60,9.04 -1.21,8.65 -1.82,8.25 -2.32,7.72 -2.82,7.19 -3.18,6.55 -3.54,5.92 -4.27,4.98 -4.99,4.04 -6.07,1.36 -7.14,-1.30 -8.19,-5.41 -9.25,-9.51 -10.61,-14.81 -11.98,-20.11 -12.80,-24.14 -13.61,-28.17 -14.55,-31.38 -15.48,-34.59 -15.62,-35.26 -15.76,-35.92 -15.73,-36.60 -15.70,-37.28 -15.52,-37.94 -15.33,-38.59 -14.99,-39.18 -14.65,-39.77 -14.18,-40.26 -13.71,-40.75 -13.14,-41.12 -12.56,-41.48 -11.92,-41.70 -11.27,-41.91 -10.60,-41.97 -9.92,-42.03 -9.25,-41.92 -8.58,-41.81 -7.95,-41.54 -7.32,-41.28 -6.78,-40.87 -6.24,-40.46 -5.81,-39.94 -5.37,-39.41 -5.08,-38.80 -4.79,-38.18 -5.02,-37.32 -5.24,-36.47 -4.28,-34.19 -3.32,-31.92 -2.38,-27.99 -1.44,-24.07 -0.21,-19.96 1.01,-15.85 1.55,-13.46 2.10,-11.07 2.36,-5.93 2.61,-0.78 2.67,-0.46 2.72,-0.13 2.70,0.19 2.68,0.52 2.57,0.83 2.47,1.14 2.30,1.42 2.13,1.70 1.89,1.93 1.66,2.16 1.37,2.33 1.09,2.50 0.77,2.59 0.46,2.69 0.13,2.70 -0.19,2.72 -0.51,2.66 -0.84,2.59 -1.13,2.45 -1.43,2.32 -1.69,2.11 -1.95,1.91 -2.15,1.64 -2.35,1.38 -2.48,1.08 -2.61,0.78 -2.61,0.78 L -2.61,0.78 Z"></path></g><g transform="translate(986.1666666666674 1065.456669998524) rotate(0 15.833333333333485 5.833333333333314)" stroke="none"><path fill="#ffffff" d="M 2.63,0.37 Q 2.63,0.37 3.78,3.96 4.93,7.54 4.76,10.64 4.59,13.73 4.96,16.50 5.32,19.26 6.65,21.68 7.98,24.09 10.90,25.82 13.81,27.54 16.82,28.04 19.83,28.53 20.51,24.96 21.20,21.39 22.21,16.94 23.23,12.48 24.17,6.32 25.11,0.15 25.52,-5.19 25.93,-10.54 26.14,-13.78 26.34,-17.02 26.36,-18.93 26.37,-20.84 26.50,-21.53 26.62,-22.23 26.91,-22.88 27.19,-23.53 27.63,-24.10 28.06,-24.66 28.62,-25.10 29.17,-25.54 29.82,-25.84 30.47,-26.13 31.16,-26.27 31.86,-26.40 32.57,-26.36 33.28,-26.32 33.96,-26.12 34.64,-25.91 35.25,-25.55 35.86,-25.18 36.37,-24.68 36.87,-24.18 37.24,-23.58 37.61,-22.97 37.83,-22.30 38.05,-21.62 38.09,-20.91 38.14,-20.20 36.22,-18.38 34.30,-16.56 33.45,-14.73 32.59,-12.91 32.45,-12.51 32.32,-12.10 32.06,-11.76 31.80,-11.42 31.45,-11.19 31.10,-10.95 30.69,-10.83 30.28,-10.72 29.86,-10.74 29.43,-10.76 29.04,-10.92 28.64,-11.08 28.32,-11.35 28.00,-11.62 27.78,-11.99 27.56,-12.35 27.46,-12.77 27.37,-13.18 27.42,-13.60 27.46,-14.03 27.64,-14.41 27.82,-14.80 28.11,-15.11 28.40,-15.42 28.78,-15.62 29.15,-15.82 29.57,-15.89 29.99,-15.95 30.41,-15.89 30.83,-15.82 31.21,-15.62 31.58,-15.42 31.87,-15.11 32.17,-14.81 32.35,-14.42 32.52,-14.04 32.57,-13.61 32.62,-13.19 32.53,-12.78 32.44,-12.36 32.22,-12.00 32.00,-11.63 31.68,-11.36 31.35,-11.08 30.96,-10.92 30.56,-10.76 30.14,-10.74 29.72,-10.72 29.31,-10.83 28.90,-10.94 28.54,-11.18 28.19,-11.42 27.93,-11.76 27.68,-12.09 27.54,-12.50 27.40,-12.90 27.40,-13.32 27.40,-13.75 27.40,-13.75 27.40,-13.75 26.89,-17.29 26.37,-20.83 26.50,-21.53 26.62,-22.23 26.91,-22.88 27.19,-23.53 27.63,-24.10 28.06,-24.66 28.62,-25.10 29.17,-25.54 29.82,-25.84 30.47,-26.13 31.16,-26.27 31.86,-26.40 32.57,-26.36 33.28,-26.32 33.96,-26.12 34.64,-25.91 35.25,-25.55 35.86,-25.18 36.37,-24.68 36.87,-24.18 37.24,-23.58 37.61,-22.97 37.83,-22.30 38.05,-21.62 38.09,-20.91 38.14,-20.20 38.96,-18.31 39.78,-16.42 39.63,-12.97 39.47,-9.52 39.04,-3.64 38.60,2.23 37.55,8.96 36.50,15.69 35.08,21.28 33.66,26.86 30.94,31.94 28.22,37.03 24.50,38.90 20.79,40.77 17.85,40.57 14.91,40.37 11.68,39.51 8.45,38.65 4.98,36.61 1.50,34.58 -0.61,31.98 -2.73,29.37 -4.60,25.12 -6.48,20.86 -6.90,16.95 -7.32,13.04 -7.08,9.45 -6.84,5.86 -4.74,2.74 -2.63,-0.37 -2.55,-0.68 -2.47,-0.99 -2.31,-1.27 -2.15,-1.55 -1.94,-1.79 -1.72,-2.03 -1.45,-2.20 -1.18,-2.38 -0.88,-2.49 -0.58,-2.59 -0.26,-2.63 0.05,-2.66 0.37,-2.61 0.69,-2.57 0.98,-2.45 1.28,-2.33 1.54,-2.14 1.80,-1.95 2.01,-1.71 2.22,-1.46 2.36,-1.17 2.51,-0.89 2.58,-0.57 2.65,-0.26 2.64,0.05 2.63,0.37 2.63,0.37 L 2.63,0.37 Z"></path></g><g transform="translate(1034.500000000001 1067.1233366651904) rotate(0 18.333333333333258 6.666666666666686)" stroke="none"><path fill="#ffffff" d="M 2.73,0 Q 2.73,0 3.54,2.86 4.36,5.73 4.87,8.00 5.38,10.26 6.09,12.63 6.80,15.00 9.18,13.32 11.55,11.64 12.69,8.25 13.83,4.86 13.99,4.53 14.15,4.20 14.39,3.56 14.63,2.91 15.01,2.34 15.40,1.77 15.91,1.31 16.42,0.85 17.02,0.53 17.63,0.20 18.29,0.03 18.96,-0.13 19.65,-0.14 20.34,-0.15 21.00,0.00 21.67,0.16 22.29,0.47 22.90,0.78 23.42,1.23 23.94,1.68 24.33,2.25 24.73,2.81 24.98,3.45 25.23,4.09 25.32,4.77 25.41,5.45 25.33,6.14 25.26,6.82 26.39,9.40 27.53,11.98 28.04,8.50 28.55,5.03 29.34,2.70 30.13,0.37 30.81,-1.74 31.49,-3.87 31.17,-6.51 30.84,-9.15 30.77,-9.57 30.70,-9.99 30.77,-10.41 30.84,-10.83 31.03,-11.20 31.23,-11.58 31.54,-11.87 31.85,-12.16 32.23,-12.34 32.62,-12.52 33.04,-12.57 33.46,-12.62 33.88,-12.53 34.29,-12.44 34.66,-12.22 35.02,-12.00 35.30,-11.68 35.57,-11.36 35.73,-10.96 35.89,-10.57 35.92,-10.14 35.94,-9.72 35.83,-9.31 35.72,-8.90 35.48,-8.55 35.24,-8.19 34.90,-7.94 34.57,-7.68 34.16,-7.54 33.76,-7.40 33.34,-7.40 32.91,-7.40 32.51,-7.54 32.11,-7.67 31.77,-7.93 31.43,-8.18 31.19,-8.53 30.95,-8.88 30.83,-9.29 30.72,-9.70 30.74,-10.13 30.76,-10.55 30.92,-10.95 31.07,-11.34 31.35,-11.67 31.62,-11.99 31.99,-12.21 32.35,-12.43 32.76,-12.52 33.18,-12.62 33.60,-12.57 34.02,-12.53 34.41,-12.35 34.80,-12.17 35.11,-11.88 35.41,-11.59 35.61,-11.22 35.82,-10.84 35.81,-10.84 35.81,-10.84 37.47,-7.67 39.12,-4.50 40.23,-1.02 41.33,2.46 40.86,6.56 40.38,10.66 38.54,14.35 36.69,18.05 33.88,20.43 31.08,22.81 27.15,22.85 23.22,22.89 20.14,19.58 17.06,16.27 16.26,14.27 15.46,12.27 14.81,8.24 14.15,4.21 14.39,3.56 14.63,2.91 15.01,2.34 15.40,1.77 15.91,1.31 16.42,0.85 17.02,0.53 17.63,0.20 18.29,0.03 18.96,-0.13 19.65,-0.14 20.33,-0.15 21.00,0.00 21.67,0.16 22.29,0.47 22.90,0.78 23.42,1.23 23.94,1.68 24.33,2.25 24.73,2.81 24.98,3.45 25.23,4.09 25.32,4.77 25.41,5.45 25.33,6.14 25.26,6.82 25.03,7.19 24.80,7.56 24.17,10.01 23.53,12.46 22.23,15.18 20.93,17.91 19.49,20.03 18.06,22.15 15.73,24.55 13.41,26.94 8.53,26.57 3.66,26.19 1.69,24.29 -0.27,22.39 -1.21,19.89 -2.15,17.39 -2.81,14.63 -3.47,11.86 -3.91,8.81 -4.36,5.76 -3.54,2.88 -2.73,0 -2.69,-0.32 -2.65,-0.65 -2.53,-0.96 -2.41,-1.26 -2.23,-1.53 -2.04,-1.81 -1.79,-2.02 -1.55,-2.24 -1.25,-2.40 -0.96,-2.55 -0.64,-2.63 -0.32,-2.71 0.00,-2.71 0.32,-2.71 0.64,-2.63 0.96,-2.55 1.25,-2.40 1.55,-2.24 1.79,-2.02 2.04,-1.81 2.23,-1.53 2.41,-1.26 2.53,-0.96 2.65,-0.65 2.69,-0.32 2.73,0.00 2.73,0.00 L 2.73,0 Z"></path></g><g transform="translate(1079.500000000001 1025.456669998524) rotate(0 14.166666666666515 26.66666666666663)" stroke="none"><path fill="#ffffff" d="M 2.69,-0.29 Q 2.69,-0.29 4.49,3.86 6.29,8.03 7.01,13.66 7.72,19.30 8.53,23.99 9.33,28.68 10.62,32.76 11.91,36.84 13.31,39.73 14.71,42.62 16.29,41.12 17.86,39.62 19.21,35.42 20.55,31.21 21.80,24.45 23.05,17.68 23.37,13.54 23.69,9.41 23.86,6.35 24.04,3.28 24.11,2.87 24.19,2.45 24.39,2.08 24.60,1.70 24.91,1.42 25.22,1.13 25.61,0.96 26.00,0.79 26.42,0.75 26.85,0.71 27.26,0.81 27.67,0.90 28.03,1.13 28.40,1.36 28.66,1.68 28.93,2.01 29.09,2.41 29.24,2.81 29.25,3.23 29.27,3.66 29.15,4.06 29.03,4.47 28.78,4.82 28.54,5.17 28.20,5.42 27.85,5.67 27.45,5.80 27.04,5.93 26.62,5.92 26.19,5.91 25.79,5.77 25.39,5.63 25.06,5.37 24.72,5.10 24.49,4.75 24.26,4.39 24.15,3.98 24.05,3.57 24.08,3.14 24.11,2.72 24.27,2.33 24.43,1.94 24.71,1.62 25.00,1.30 25.36,1.09 25.73,0.87 26.15,0.79 26.56,0.70 26.99,0.76 27.41,0.81 27.79,0.99 28.17,1.18 28.48,1.48 28.78,1.77 28.97,2.15 29.16,2.53 29.23,2.95 29.29,3.37 29.29,3.37 29.29,3.37 29.36,6.44 29.43,9.51 29.61,13.67 29.79,17.82 30.72,26.06 31.64,34.30 29.97,40.59 28.30,46.89 24.31,50.97 20.32,55.05 15.41,54.75 10.50,54.45 7.33,51.00 4.17,47.55 2.56,43.79 0.95,40.03 -0.32,35.24 -1.60,30.44 -2.34,25.52 -3.08,20.60 -3.72,14.91 -4.37,9.21 -3.53,4.75 -2.69,0.29 -2.69,-0.02 -2.69,-0.35 -2.61,-0.67 -2.52,-0.98 -2.37,-1.27 -2.21,-1.56 -1.99,-1.80 -1.78,-2.05 -1.50,-2.23 -1.23,-2.41 -0.93,-2.53 -0.62,-2.64 -0.29,-2.67 0.02,-2.71 0.35,-2.67 0.67,-2.63 0.98,-2.51 1.28,-2.39 1.55,-2.20 1.82,-2.01 2.03,-1.76 2.25,-1.51 2.39,-1.22 2.54,-0.93 2.62,-0.61 2.69,-0.29 2.69,-0.29 L 2.69,-0.29 Z"></path></g></svg>